# Blender v2.93.4 OBJ File: 'bank.blend'
# www.blender.org
mtllib bank.mtl
o Cube
v 10.000000 20.000000 -15.000000
v 10.000000 0.000000 -15.000000
v 10.000000 20.000000 15.000000
v 10.000000 0.000000 15.000000
v -10.000000 20.000000 -15.000000
v -10.000000 0.000000 -15.000000
v -10.000000 20.000000 15.000000
v -10.000000 0.000000 15.000000
v -4.529097 0.000000 -15.000000
v 4.178720 0.000000 -15.000000
v -4.529097 0.490845 -15.000000
v 4.178720 0.490845 -15.000000
v 4.178720 0.000000 -15.998975
v -4.529097 0.000000 -15.998975
v 4.178720 0.490845 -15.998975
v -4.529097 0.490845 -15.998975
v -8.064974 4.985479 -14.999991
v -8.064974 4.985479 -15.125944
v -4.761391 4.985479 -14.999991
v -4.761391 4.985479 -15.125944
v -8.064974 9.818584 -14.999991
v -8.064974 9.818584 -15.125944
v -4.761392 9.818584 -14.999991
v -4.761392 9.818584 -15.125944
v 5.098144 5.001060 -15.000000
v 5.098144 5.001060 -15.117392
v 8.421709 5.001060 -15.000000
v 8.421709 5.001060 -15.117392
v 5.098143 9.801748 -15.000000
v 5.098143 9.801748 -15.117392
v 8.421708 9.801748 -15.000000
v 8.421708 9.801748 -15.117392
v -2.352143 0.490845 -15.000000
v 2.001766 0.490845 -15.000000
v -2.335211 9.227644 -15.000002
v 2.018698 9.227644 -15.000002
v -2.352143 0.490845 -15.118524
v 2.001766 0.490845 -15.118524
v -2.335211 9.227644 -15.118525
v 2.018698 9.227644 -15.118525
v -6.748352 13.659101 -14.999995
v -6.748352 13.659101 -15.298247
v 6.679616 13.659101 -14.999995
v 6.679616 13.659101 -15.298245
v -6.748352 17.791479 -14.999995
v -6.748352 17.791479 -15.298247
v 6.679616 17.791479 -14.999995
v 6.679616 17.791479 -15.298245
vt 0.333333 0.000000
vt 0.666667 0.000000
vt 0.666667 0.333333
vt 0.333333 0.333333
vt 0.666667 0.666667
vt 0.333333 0.666667
vt 0.333333 0.333333
vt 0.666667 0.333333
vt 0.333333 1.000000
vt 0.000000 1.000000
vt 0.000000 0.666667
vt 0.333333 0.666667
vt 0.000000 0.000000
vt 0.091182 0.000000
vt 0.236312 0.000000
vt 0.333333 0.000000
vt 0.333333 0.333333
vt 0.000000 0.333333
vt 1.000000 0.333333
vt 0.666667 0.333333
vt 0.666667 0.000000
vt 1.000000 0.000000
vt 0.333333 0.333333
vt 0.333333 0.666667
vt 0.000000 0.666667
vt 0.000000 0.333333
vt 0.097021 0.333333
vt 0.242152 0.333333
vt 0.455821 0.666667
vt 0.455821 0.677766
vt 0.464002 0.677766
vt 0.464002 0.666667
vt 0.754820 0.333333
vt 0.746639 0.333333
vt 0.746639 0.478464
vt 0.754820 0.478464
vt 0.739232 0.702263
vt 0.739232 0.557133
vt 0.750331 0.557133
vt 0.750331 0.702263
vt 0.472183 0.677766
vt 0.472183 0.666667
vt 0.464002 0.666667
vt 0.464002 0.677766
vt 0.473582 0.666667
vt 0.474982 0.666667
vt 0.474982 0.721726
vt 0.473582 0.721726
vt 0.451813 0.666667
vt 0.453213 0.666667
vt 0.453213 0.747218
vt 0.451813 0.747218
vt 0.472183 0.666667
vt 0.473582 0.666667
vt 0.473582 0.721726
vt 0.472183 0.721726
vt 0.451813 0.747218
vt 0.450414 0.747218
vt 0.450414 0.666667
vt 0.451813 0.666667
vt 0.986950 0.899518
vt 0.986950 0.980070
vt 0.931891 0.980070
vt 0.931891 0.899518
vt 0.333333 0.747218
vt 0.333333 0.666667
vt 0.388393 0.666667
vt 0.388393 0.747218
vt 0.474982 0.666667
vt 0.476286 0.666667
vt 0.476286 0.722059
vt 0.474982 0.722059
vt 0.454517 0.666667
vt 0.455821 0.666667
vt 0.455821 0.746678
vt 0.454517 0.746678
vt 0.476286 0.666667
vt 0.477590 0.666667
vt 0.477590 0.722059
vt 0.476286 0.722059
vt 0.454517 0.746678
vt 0.453213 0.746678
vt 0.453213 0.666667
vt 0.454517 0.666667
vt 0.991282 0.910899
vt 0.991282 0.990911
vt 0.935889 0.990911
vt 0.935889 0.910899
vt 0.388393 0.746678
vt 0.388393 0.666667
vt 0.443786 0.666667
vt 0.443786 0.746678
vt 0.735540 0.333333
vt 0.735540 0.478464
vt 0.995256 0.992840
vt 0.922691 0.992981
vt 0.922691 0.847367
vt 0.995256 0.847227
vt 0.666667 0.702746
vt 0.739232 0.702887
vt 0.739232 0.557273
vt 0.666667 0.557133
vt 0.735540 0.551029
vt 0.736856 0.551029
vt 0.736856 0.478464
vt 0.735540 0.478464
vt 0.754820 0.702746
vt 0.756137 0.702746
vt 0.756137 0.557133
vt 0.754820 0.557133
vt 0.737432 0.551358
vt 0.737432 0.478793
vt 0.738749 0.478793
vt 0.738749 0.551358
vt 0.757454 0.557133
vt 0.756137 0.557133
vt 0.756137 0.702746
vt 0.757454 0.702746
vt 0.757145 0.324807
vt 0.760459 0.324807
vt 0.760459 0.548607
vt 0.757145 0.548607
vt 0.447100 0.666667
vt 0.450414 0.666667
vt 0.450414 0.735540
vt 0.447100 0.735540
vt 0.754820 0.702263
vt 0.751506 0.702263
vt 0.751506 0.478464
vt 0.754820 0.478464
vt 0.447100 0.735540
vt 0.443786 0.735540
vt 0.443786 0.666667
vt 0.447100 0.666667
vt 0.735540 0.557133
vt 0.666667 0.557133
vt 0.666667 0.333333
vt 0.735540 0.333333
vt 0.735540 0.557133
vt 0.666667 0.557133
vt 0.666667 0.333333
vt 0.735540 0.333333
vn 0.0000 1.0000 0.0000
vn 0.0000 0.0000 1.0000
vn -1.0000 0.0000 0.0000
vn 0.0000 -1.0000 0.0000
vn 1.0000 0.0000 0.0000
vn 0.0000 0.0000 -1.0000
vn -1.0000 0.0019 0.0000
vn 1.0000 -0.0019 0.0000
usemtl Material
s off
f 1/1/1 5/2/1 7/3/1 3/4/1
f 4/5/2 3/6/2 7/7/2 8/8/2
f 8/9/3 7/10/3 5/11/3 6/12/3
f 6/13/4 9/14/4 10/15/4 2/16/4 4/17/4 8/18/4
f 2/19/5 1/20/5 3/21/5 4/22/5
f 6/23/6 5/24/6 1/25/6 2/26/6 10/27/6 9/28/6
f 11/29/3 16/30/3 14/31/3 9/32/3
f 14/33/6 16/34/6 15/35/6 13/36/6
f 9/37/1 10/38/1 13/39/1 14/40/1
f 10/41/5 13/42/5 15/43/5 12/44/5
f 17/45/4 18/46/4 20/47/4 19/48/4
f 19/49/5 20/50/5 24/51/5 23/52/5
f 23/53/1 24/54/1 22/55/1 21/56/1
f 21/57/3 22/58/3 18/59/3 17/60/3
f 19/61/2 23/62/2 21/63/2 17/64/2
f 24/65/6 20/66/6 18/67/6 22/68/6
f 25/69/4 26/70/4 28/71/4 27/72/4
f 27/73/5 28/74/5 32/75/5 31/76/5
f 31/77/1 32/78/1 30/79/1 29/80/1
f 29/81/3 30/82/3 26/83/3 25/84/3
f 27/85/2 31/86/2 29/87/2 25/88/2
f 32/89/6 28/90/6 26/91/6 30/92/6
f 15/35/1 16/34/1 11/93/1 12/94/1
f 35/95/6 36/96/6 34/97/6 33/98/6
f 39/99/6 40/100/6 38/101/6 37/102/6
f 36/103/1 40/104/1 39/105/1 35/106/1
f 35/107/7 39/108/7 37/109/7 33/110/7
f 33/111/1 34/112/1 38/113/1 37/114/1
f 34/115/8 38/116/8 40/117/8 36/118/8
f 41/119/4 42/120/4 44/121/4 43/122/4
f 43/123/5 44/124/5 48/125/5 47/126/5
f 47/127/1 48/128/1 46/129/1 45/130/1
f 45/131/3 46/132/3 42/133/3 41/134/3
f 43/135/2 47/136/2 45/137/2 41/138/2
f 48/139/6 44/140/6 42/141/6 46/142/6
l 33 11
l 12 34
