# Blender v2.93.4 OBJ File: 'church.blend'
# www.blender.org
mtllib church.mtl
o Cube
v 19.815464 26.188494 -23.001995
v -19.893425 26.188494 -23.001995
v -19.893425 -0.369158 -23.001995
v -19.893425 -0.369158 16.998005
v 19.815464 -0.369158 -23.001995
v 19.815464 -0.369158 16.998005
v 19.815510 26.120003 17.006748
v -19.893383 26.120003 17.006748
v -4.464990 1.745596 16.998005
v 4.208630 1.745596 16.998005
v -4.391503 11.200855 16.998007
v 4.282116 11.200855 16.998007
v -4.464990 1.745596 17.218464
v 4.208630 1.745596 17.218464
v -4.391503 11.200855 17.218466
v 4.282116 11.200855 17.218466
v -7.277631 1.747166 16.970398
v 6.760244 1.745596 16.998005
v -7.277631 1.747166 21.167295
v 6.760244 1.745596 21.194901
v -7.277631 0.767345 21.167295
v 6.760244 0.765776 21.194901
v -7.265156 0.799103 16.998005
v 6.744652 0.799103 16.998005
v 1.420938 36.342789 8.577311
v -1.048266 36.339394 8.594079
v -1.054664 36.350288 -14.797449
v 1.448681 36.408218 -14.778365
v 1.373408 36.312370 6.419045
v 1.382668 36.334206 -1.376231
v -1.051005 36.344055 -1.418800
v -1.048892 36.340454 6.306068
v -5.844306 33.746086 -1.489348
v -5.844306 33.741302 6.306106
v 5.992738 33.745010 6.383645
v 5.957463 33.781342 -1.305988
v -0.485536 46.778175 1.908470
v -0.444857 46.773964 2.934196
v 0.710918 46.759407 2.909776
v 0.696593 46.822174 1.870483
v -0.544118 54.561600 2.049600
v -0.537460 54.557388 2.905218
v 0.618315 54.542831 2.880798
v 0.603990 54.520538 2.011613
v 0.650291 51.566322 2.001334
v -0.531838 51.522324 2.039322
v -0.491159 51.518120 2.945971
v 0.664617 51.503563 2.921552
v 0.627140 52.659737 2.014979
v -0.514309 52.611526 2.874562
v -0.554989 52.615746 1.984923
v 0.641466 52.596977 2.850142
v 2.990266 52.645782 2.815296
v 3.013417 51.552376 2.886705
v 2.999091 51.615135 1.966488
v 2.975940 52.708542 1.980133
v -3.007807 52.570183 2.095803
v -2.984656 51.476768 2.150202
v -2.943977 51.472557 3.056851
v -2.967128 52.565971 2.985442
v 15.391381 4.303829 16.999548
v 15.391381 4.303753 17.232521
v 10.200777 4.303829 16.999548
v 10.200777 4.303753 17.232521
v 15.391381 16.645859 17.003620
v 15.391381 16.645782 17.236593
v 10.200777 16.645859 17.003620
v 10.200777 16.645782 17.236593
v 12.796079 18.551067 17.003620
v 12.796079 18.550991 17.236593
v 11.498429 18.142809 17.003620
v 11.498429 18.142733 17.236593
v 14.093730 18.142733 17.236593
v 14.093730 18.142809 17.003620
v 10.849604 17.666506 17.003620
v 10.849604 17.666430 17.236593
v 12.147254 18.465935 17.236593
v 12.147254 18.466011 17.003620
v 13.444903 18.466011 17.003620
v 13.444903 18.465935 17.236593
v 14.742555 17.666430 17.236593
v 14.742555 17.666506 17.003620
v -12.090477 4.313858 16.998962
v -12.090477 4.313618 17.229097
v -17.132389 4.313858 16.998962
v -17.132389 4.313618 17.229097
v -12.090477 16.641300 17.003603
v -12.090477 16.641060 17.233736
v -17.132389 16.641300 17.003603
v -17.132389 16.641060 17.233736
v -14.611434 18.546509 17.003603
v -14.611434 18.546268 17.233736
v -15.871912 18.138250 17.003603
v -15.871912 18.138012 17.233736
v -13.350955 18.138012 17.233736
v -13.350955 18.138250 17.003603
v -16.502151 17.661947 17.003603
v -16.502151 17.661709 17.233736
v -15.241673 18.461216 17.233736
v -15.241673 18.461454 17.003603
v -13.981194 18.461454 17.003603
v -13.981194 18.461216 17.233736
v -12.720716 17.661709 17.233736
v -12.720716 17.661947 17.003603
v -7.277631 1.747166 20.249134
v -6.171953 1.747058 21.169189
v -6.171566 1.747058 20.235159
v 5.847034 1.745739 21.192387
v 6.760244 1.745596 20.277687
v 5.847035 1.745739 20.277687
v -7.276349 12.517038 20.249134
v -7.276349 12.517038 21.167295
v 6.761527 12.617533 20.277687
v 6.761527 12.617533 21.194901
v 5.848316 13.209652 21.192387
v -6.170671 13.210971 21.169189
v -6.170283 13.210971 20.235159
v 5.848317 13.209652 20.277687
v 0.039655 18.092953 22.497232
v 7.559371 12.003562 22.495201
v 0.008466 17.293447 22.496969
v -8.152935 11.875079 22.495262
v 7.504561 12.683520 22.495590
v -7.997947 12.728415 22.495420
v 0.040211 18.095709 17.003712
v -7.997392 12.731171 17.001900
v -8.152380 11.877834 17.001743
v 0.009021 17.296204 17.003450
v 7.559927 12.006318 17.001682
v -0.054694 13.398083 16.998007
v 7.505116 12.686276 17.002069
v -0.054694 13.398083 17.218466
v -2.223099 12.816881 17.218466
v -2.223099 12.816882 16.998007
v 2.113711 12.816882 16.998007
v 2.113711 12.816881 17.218466
v 9.888243 -0.318126 23.581184
v 9.888243 -0.369158 16.998005
v -9.966203 -0.369158 16.998005
v -9.966203 -0.318126 23.581184
v 9.888243 0.767731 23.564175
v -9.966203 0.767731 23.564175
v -9.948205 0.764920 16.978775
v 9.888243 0.767731 17.015017
vt 0.603900 0.422061
vt 0.816454 0.422021
vt 0.816454 0.703098
vt 0.603854 0.703865
vt 0.816431 0.985726
vt 0.603854 0.985180
vt 0.603900 0.704045
vt 0.816431 0.703865
vt 0.000000 0.000000
vt 0.282235 0.000000
vt 0.282253 0.422019
vt 0.000018 0.422019
vt 0.388972 0.573043
vt 0.379824 0.573041
vt 0.379824 0.543849
vt 0.388972 0.543851
vt 0.828527 0.658170
vt 0.828481 0.635131
vt 0.829652 0.635131
vt 0.829698 0.658170
vt 0.830998 0.589015
vt 0.830998 0.689389
vt 0.829826 0.689389
vt 0.829826 0.589015
vt 0.782257 0.149200
vt 0.874436 0.149913
vt 0.874436 0.250389
vt 0.851258 0.267383
vt 0.828165 0.273380
vt 0.805168 0.267027
vt 0.782257 0.249677
vt 0.828527 0.612079
vt 0.828655 0.589015
vt 0.829698 0.612079
vt 0.830998 0.689326
vt 0.830998 0.589016
vt 0.832169 0.589015
vt 0.832169 0.689325
vt 0.833340 0.589015
vt 0.833340 0.681197
vt 0.832169 0.681197
vt 0.832169 0.589015
vt 0.390884 0.729567
vt 0.379129 0.729567
vt 0.379129 0.615113
vt 0.390884 0.607737
vt 0.782257 0.149192
vt 0.782257 0.000000
vt 0.792669 0.000002
vt 0.792669 0.009707
vt 0.792669 0.137443
vt 0.792669 0.149194
vt 0.804559 0.388766
vt 0.804559 0.399165
vt 0.782257 0.398821
vt 0.782260 0.388785
vt 0.799685 0.388770
vt 0.826861 0.283777
vt 0.821982 0.283779
vt 0.804559 0.283785
vt 0.804706 0.273733
vt 0.826861 0.273380
vt 0.936792 0.149193
vt 0.914634 0.149082
vt 0.914487 0.000188
vt 0.936792 0.000000
vt 0.042889 0.648956
vt 0.042792 0.622350
vt 0.113884 0.622389
vt 0.114111 0.648254
vt 0.000000 0.844042
vt 0.114687 0.696846
vt 0.155551 0.697221
vt 0.155535 0.648155
vt 0.167001 0.648661
vt 0.212604 0.844043
vt 0.390719 0.200050
vt 0.391337 0.226654
vt 0.212604 0.422021
vt 0.167091 0.622419
vt 0.154933 0.622412
vt 0.155139 0.571418
vt 0.113715 0.571417
vt 0.000000 0.422019
vt 0.500779 0.422021
vt 0.391337 0.226642
vt 0.391373 0.200399
vt 0.500760 0.000000
vt 0.212604 0.643017
vt 0.263580 0.615413
vt 0.289321 0.615714
vt 0.338405 0.643017
vt 0.282395 0.504895
vt 0.270111 0.504735
vt 0.338405 0.790668
vt 0.379129 0.794068
vt 0.375167 0.657898
vt 0.369607 0.658044
vt 0.287011 0.836254
vt 0.338030 0.863708
vt 0.280738 0.725713
vt 0.268172 0.725278
vt 0.212604 0.863708
vt 0.261147 0.836436
vt 0.338405 0.607737
vt 0.379824 0.607737
vt 0.362783 0.472457
vt 0.357326 0.472397
vt 0.281090 0.675313
vt 0.281303 0.663688
vt 0.281131 0.643017
vt 0.268929 0.643485
vt 0.268739 0.663259
vt 0.268525 0.674877
vt 0.810903 0.399165
vt 0.806288 0.399246
vt 0.806291 0.411449
vt 0.810838 0.411449
vt 0.786991 0.419830
vt 0.786873 0.399165
vt 0.782326 0.399181
vt 0.782257 0.419830
vt 0.787165 0.399789
vt 0.786991 0.419520
vt 0.791609 0.419799
vt 0.791609 0.399165
vt 0.379129 0.607737
vt 0.374198 0.607941
vt 0.362818 0.422081
vt 0.357994 0.422019
vt 0.281922 0.454477
vt 0.281682 0.442861
vt 0.281444 0.422180
vt 0.269160 0.422019
vt 0.269398 0.442700
vt 0.269638 0.454316
vt 0.306886 0.453969
vt 0.306646 0.442353
vt 0.307161 0.675733
vt 0.307374 0.664108
vt 0.796504 0.410753
vt 0.796504 0.399165
vt 0.792061 0.399796
vt 0.791609 0.411382
vt 0.820906 0.674044
vt 0.820906 0.649080
vt 0.816454 0.649196
vt 0.816454 0.674161
vt 0.243774 0.662808
vt 0.243560 0.674426
vt 0.821350 0.649080
vt 0.821350 0.624116
vt 0.816454 0.624001
vt 0.816454 0.648965
vt 0.801467 0.399165
vt 0.801557 0.410788
vt 0.806288 0.410971
vt 0.806288 0.399350
vt 0.383955 0.764873
vt 0.383955 0.790949
vt 0.388692 0.790625
vt 0.388692 0.764549
vt 0.243328 0.443169
vt 0.243568 0.454785
vt 0.383955 0.790947
vt 0.383955 0.764872
vt 0.379129 0.764549
vt 0.379129 0.790625
vt 0.822588 0.679166
vt 0.821350 0.679166
vt 0.821350 0.624001
vt 0.822588 0.624001
vt 0.838046 0.273381
vt 0.839284 0.273380
vt 0.839246 0.404342
vt 0.838008 0.404343
vt 0.390872 0.564203
vt 0.389634 0.564203
vt 0.389530 0.553008
vt 0.390768 0.553008
vt 0.389634 0.422019
vt 0.390872 0.422020
vt 0.874436 0.300611
vt 0.874436 0.169449
vt 0.881332 0.158602
vt 0.888228 0.153540
vt 0.895123 0.150105
vt 0.902019 0.149200
vt 0.908914 0.150104
vt 0.915810 0.153539
vt 0.922706 0.158600
vt 0.929601 0.169446
vt 0.929601 0.300609
vt 0.936961 0.724108
vt 0.936961 0.855257
vt 0.881796 0.855259
vt 0.881796 0.724111
vt 0.888691 0.713265
vt 0.895587 0.708203
vt 0.902483 0.704769
vt 0.909378 0.703865
vt 0.916274 0.704768
vt 0.923169 0.708202
vt 0.930065 0.713263
vt 0.389571 0.578004
vt 0.390809 0.578004
vt 0.390802 0.584900
vt 0.389564 0.584900
vt 0.389634 0.564203
vt 0.390872 0.564203
vt 0.390835 0.571104
vt 0.389597 0.571104
vt 0.389571 0.591795
vt 0.390809 0.591795
vt 0.390835 0.598687
vt 0.389597 0.598687
vt 0.839284 0.415561
vt 0.838046 0.415561
vt 0.390872 0.605577
vt 0.389634 0.605577
vt 0.822588 0.624001
vt 0.823811 0.624001
vt 0.823811 0.677586
vt 0.822588 0.677586
vt 0.839320 0.273383
vt 0.840543 0.273380
vt 0.840507 0.404187
vt 0.839284 0.404190
vt 0.838008 0.415401
vt 0.836785 0.415399
vt 0.836684 0.404214
vt 0.837907 0.404216
vt 0.836785 0.273380
vt 0.838008 0.273383
vt 0.935397 0.422021
vt 0.935397 0.553028
vt 0.928699 0.563875
vt 0.922001 0.568937
vt 0.915303 0.572372
vt 0.908605 0.573277
vt 0.901907 0.572373
vt 0.895209 0.568938
vt 0.888511 0.563877
vt 0.881812 0.553030
vt 0.881812 0.422023
vt 0.983186 0.169444
vt 0.983186 0.300438
vt 0.929601 0.300440
vt 0.929601 0.169447
vt 0.936299 0.158601
vt 0.942997 0.153539
vt 0.949695 0.150105
vt 0.956394 0.149200
vt 0.963092 0.150104
vt 0.969790 0.153538
vt 0.976488 0.158599
vt 0.823817 0.637406
vt 0.825040 0.637406
vt 0.825034 0.644106
vt 0.823811 0.644106
vt 0.823881 0.624001
vt 0.825104 0.624001
vt 0.825066 0.630705
vt 0.823843 0.630705
vt 0.823817 0.650803
vt 0.825040 0.650803
vt 0.825066 0.657497
vt 0.823843 0.657497
vt 0.840543 0.415395
vt 0.839320 0.415397
vt 0.825104 0.664190
vt 0.823881 0.664190
vt 0.881796 0.703865
vt 0.824924 0.783650
vt 0.881796 0.870858
vt 0.872741 0.869136
vt 0.816431 0.783248
vt 0.874565 0.704388
vt 0.373579 0.943262
vt 0.373665 0.931507
vt 0.368701 0.931506
vt 0.368704 0.803769
vt 0.373564 0.803774
vt 0.373574 0.794069
vt 0.391001 0.794086
vt 0.391001 0.943279
vt 0.836684 0.395025
vt 0.831823 0.395027
vt 0.831823 0.273382
vt 0.836684 0.273380
vt 0.796483 0.411406
vt 0.796483 0.421105
vt 0.791622 0.421082
vt 0.791609 0.411382
vt 0.914487 0.137451
vt 0.907112 0.149200
vt 0.379825 0.422019
vt 0.389530 0.422019
vt 0.389530 0.543849
vt 0.379824 0.537558
vt 0.881812 0.589015
vt 0.874583 0.588491
vt 0.816454 0.509625
vt 0.872759 0.423742
vt 0.881812 0.422021
vt 0.824947 0.509225
vt 0.831823 0.395049
vt 0.826861 0.395053
vt 0.826861 0.273385
vt 0.831823 0.273380
vt 0.908196 0.000008
vt 0.914487 0.009715
vt 0.826861 0.398058
vt 0.821982 0.398059
vt 0.970808 0.586785
vt 0.970390 0.507509
vt 0.999582 0.507504
vt 1.000000 0.586780
vt 0.799685 0.273385
vt 0.804559 0.273380
vt 0.338405 0.874221
vt 0.339514 0.794068
vt 0.368702 0.794078
vt 0.367592 0.874231
vt 0.379824 0.573051
vt 0.387071 0.573042
vt 0.387071 0.602231
vt 0.379824 0.602239
vt 0.782238 0.000000
vt 0.782243 0.105505
vt 0.782252 0.316516
vt 0.782257 0.422021
vt 0.801467 0.399165
vt 0.801467 0.410924
vt 0.796504 0.410947
vt 0.796588 0.399183
vt 0.339514 0.961060
vt 0.368702 0.961069
vt 0.970808 0.422026
vt 1.000000 0.422021
vt 0.828655 0.681197
vt 0.829826 0.681197
vt 0.971938 0.703866
vt 0.971938 0.914877
vt 0.936960 0.914876
vt 0.936960 0.703865
vt 0.971938 0.914874
vt 0.983477 0.914875
vt 0.983477 0.703865
vt 0.971938 0.703865
vt 0.379129 0.764549
vt 0.391192 0.764463
vt 0.391192 0.729662
vt 0.379670 0.729567
vt 0.816454 0.624001
vt 0.828481 0.624001
vt 0.828198 0.589020
vt 0.816673 0.589015
vt 0.935497 0.450728
vt 0.935397 0.422212
vt 0.970390 0.422021
vt 0.970390 0.633032
vt 0.935589 0.633032
vt 0.935497 0.599622
vt 0.391337 0.844050
vt 0.391337 0.422029
vt 0.603854 0.422021
vt 0.603854 0.844043
vn -1.0000 0.0000 0.0000
vn 1.0000 -0.0000 -0.0000
vn 0.0000 0.0000 -1.0000
vn -0.9839 0.1787 -0.0000
vn 0.2589 0.9659 0.0000
vn -1.0000 0.0078 0.0000
vn 0.0000 -0.0000 1.0000
vn -0.5976 0.8018 0.0000
vn 1.0000 -0.0078 0.0000
vn 0.0000 -1.0000 0.0000
vn -0.0126 0.0000 -0.9999
vn -0.0020 0.0005 1.0000
vn 1.0000 -0.0081 -0.0019
vn -1.0000 -0.0065 -0.0015
vn -0.0000 -1.0000 -0.0078
vn -0.0098 0.9999 0.0030
vn 0.4847 0.8747 0.0020
vn -0.0005 0.6276 -0.7786
vn -0.4757 0.8796 0.0012
vn 0.0003 0.6359 0.7718
vn -0.0012 0.3200 0.9474
vn 0.0052 1.0000 -0.0067
vn 0.9270 0.3751 -0.0010
vn 0.0076 0.3065 -0.9518
vn -0.9243 0.3815 0.0047
vn -0.0216 0.0180 -0.9996
vn 0.0238 0.9997 -0.0108
vn -0.9996 -0.0038 0.0271
vn 0.9998 0.0123 -0.0165
vn 0.9999 0.0100 -0.0140
vn -0.9991 -0.0104 0.0420
vn 0.0212 0.0040 0.9998
vn 0.0134 0.0654 0.9978
vn -0.0442 -0.0506 -0.9977
vn 0.9997 0.0208 -0.0148
vn -0.0196 0.9970 0.0753
vn -0.0151 0.0122 -0.9998
vn 0.0197 -0.9975 -0.0683
vn -0.9988 -0.0186 0.0452
vn -0.0183 0.9998 0.0056
vn 0.0438 0.0660 0.9969
vn 0.0183 -0.9998 -0.0055
vn 0.0000 -1.0000 -0.0003
vn 0.8439 0.5365 0.0002
vn 0.0000 0.0003 -1.0000
vn 0.0000 -0.0003 1.0000
vn -0.1300 0.9915 0.0003
vn -0.5918 0.8061 0.0003
vn 0.4459 0.8951 0.0003
vn -0.8439 0.5365 0.0002
vn -0.4459 0.8951 0.0003
vn 0.1300 0.9915 0.0003
vn 0.5918 0.8061 0.0003
vn 0.0000 -1.0000 -0.0010
vn 0.8509 0.5254 0.0005
vn -0.1337 0.9910 0.0010
vn -0.6029 0.7978 0.0008
vn 0.4563 0.8898 0.0009
vn -0.8509 0.5254 0.0005
vn -0.4563 0.8898 0.0009
vn 0.1337 0.9910 0.0010
vn 0.6029 0.7978 0.0008
vn 0.0001 0.0003 -1.0000
vn 0.0001 1.0000 -0.0000
vn -1.0000 0.0001 -0.0000
vn 0.5440 0.8391 0.0000
vn -0.0017 0.0000 1.0000
vn -0.0001 -0.0003 1.0000
vn 1.0000 -0.0001 0.0004
vn -0.0028 0.0000 1.0000
vn 0.5868 0.8097 0.0005
vn 1.0000 -0.0001 0.0000
vn -0.5738 -0.8190 -0.0005
vn 0.9968 0.0803 0.0001
vn -0.5315 0.8470 -0.0001
vn 0.5531 -0.8331 -0.0004
vn -0.5551 0.8318 0.0004
vn -0.2589 0.9659 0.0000
vn 0.5976 0.8018 0.0000
vn 0.0000 1.0000 -0.0078
vn 0.0000 0.0157 0.9999
vn -1.0000 0.0081 -0.0014
vn -0.0001 1.0000 0.0040
usemtl Material
s off
f 3/1/1 4/2/1 8/3/1 2/4/1
f 1/5/2 7/6/2 6/7/2 5/8/2
f 3/9/3 2/10/3 1/11/3 5/12/3
f 126/13/4 127/14/4 122/15/4 124/16/4
f 135/17/5 130/18/5 132/19/5 136/20/5
f 11/21/6 9/22/6 13/23/6 15/24/6
f 13/25/7 14/26/7 16/27/7 136/28/7 132/29/7 133/30/7 15/31/7
f 134/32/8 11/33/8 15/24/8 133/34/8
f 10/35/9 12/36/9 16/37/9 14/38/9
f 9/39/10 10/40/10 14/41/10 13/42/10
f 107/43/11 105/44/11 111/45/11 117/46/11
f 21/47/12 22/48/12 20/49/12 108/50/12 106/51/12 19/52/12
f 20/53/13 22/54/13 24/55/13 18/56/13 109/57/13
f 19/58/14 105/59/14 17/60/14 23/61/14 21/62/14
f 21/63/15 23/64/15 24/65/15 22/66/15
f 28/67/16 27/68/16 31/69/16 30/70/16
f 1/71/17 28/67/17 30/70/17 36/72/17 35/73/17 29/74/17 25/75/17 7/76/17
f 2/10/18 27/77/18 28/78/18 1/11/18
f 8/79/19 26/80/19 32/81/19 34/82/19 33/83/19 31/69/19 27/68/19 2/84/19
f 7/85/20 25/86/20 26/87/20 8/88/20
f 34/89/21 32/90/21 29/91/21 35/92/21 39/93/21 38/94/21
f 29/74/22 32/81/22 26/80/22 25/75/22
f 35/95/23 36/96/23 40/97/23 39/98/23
f 31/99/24 33/100/24 37/101/24 40/102/24 36/103/24 30/104/24
f 33/105/25 34/106/25 38/107/25 37/108/25
f 40/102/26 37/101/26 46/109/26 51/110/26 41/111/26 44/112/26 49/113/26 45/114/26
f 43/115/27 44/116/27 41/117/27 42/118/27
f 50/119/28 42/120/28 41/121/28 51/122/28
f 49/123/29 44/124/29 43/125/29 52/126/29
f 40/97/30 45/127/30 48/128/30 39/98/30
f 38/107/31 47/129/31 46/130/31 37/108/31
f 39/93/32 48/131/32 52/132/32 43/133/32 42/134/32 50/135/32 47/136/32 38/94/32
f 48/131/33 54/137/33 53/138/33 52/132/33
f 46/109/34 58/139/34 57/140/34 51/110/34
f 55/141/35 56/142/35 53/143/35 54/144/35
f 52/145/36 53/146/36 56/147/36 49/148/36
f 49/113/37 56/149/37 55/150/37 45/114/37
f 45/151/38 55/152/38 54/153/38 48/154/38
f 59/155/39 60/156/39 57/157/39 58/158/39
f 51/159/40 57/160/40 60/161/40 50/162/40
f 50/135/41 60/163/41 59/164/41 47/136/41
f 47/165/42 59/166/42 58/167/42 46/168/42
f 61/169/43 62/170/43 64/171/43 63/172/43
f 63/173/1 64/174/1 68/175/1 67/176/1
f 82/177/44 81/178/44 66/179/44 65/180/44
f 65/180/2 66/179/2 62/181/2 61/182/2
f 63/183/45 67/184/45 75/185/45 71/186/45 78/187/45 69/188/45 79/189/45 74/190/45 82/191/45 65/192/45 61/193/45
f 68/194/46 64/195/46 62/196/46 66/197/46 81/198/46 73/199/46 80/200/46 70/201/46 77/202/46 72/203/46 76/204/46
f 78/205/47 77/206/47 70/207/47 69/208/47
f 75/209/48 76/210/48 72/211/48 71/212/48
f 79/213/49 80/214/49 73/215/49 74/216/49
f 67/176/50 68/175/50 76/217/50 75/218/50
f 71/212/51 72/211/51 77/206/51 78/205/51
f 69/208/52 70/207/52 80/214/52 79/213/52
f 74/216/53 73/215/53 81/219/53 82/220/53
f 83/221/54 84/222/54 86/223/54 85/224/54
f 85/225/1 86/226/1 90/227/1 89/228/1
f 104/229/55 103/230/55 88/231/55 87/232/55
f 87/232/2 88/231/2 84/233/2 83/234/2
f 85/235/45 89/236/45 97/237/45 93/238/45 100/239/45 91/240/45 101/241/45 96/242/45 104/243/45 87/244/45 83/245/45
f 90/246/46 86/247/46 84/248/46 88/249/46 103/250/46 95/251/46 102/252/46 92/253/46 99/254/46 94/255/46 98/256/46
f 100/257/56 99/258/56 92/259/56 91/260/56
f 97/261/57 98/262/57 94/263/57 93/264/57
f 101/265/58 102/266/58 95/267/58 96/268/58
f 89/228/59 90/227/59 98/269/59 97/270/59
f 93/264/60 94/263/60 99/258/60 100/257/60
f 91/260/61 92/259/61 102/266/61 101/265/61
f 96/268/62 95/267/62 103/271/62 104/272/62
f 129/273/63 128/274/63 127/275/63 126/276/63 125/277/63 131/278/63
f 105/279/64 107/280/64 106/281/64 108/282/64 110/283/64 109/284/64 18/285/64 17/286/64
f 110/287/65 108/288/65 115/289/65 118/290/65
f 113/291/66 118/292/66 115/293/66 114/294/66
f 106/51/67 116/295/67 112/296/67 19/52/67
f 109/297/3 110/298/3 118/299/3 113/300/3
f 120/301/68 123/302/68 119/303/68 124/304/68 122/305/68 121/306/68
f 106/307/69 107/308/69 117/309/69 116/310/69
f 20/49/70 114/311/70 115/312/70 108/50/70
f 19/58/65 112/313/65 111/314/65 105/59/65
f 131/315/71 125/316/71 119/317/71 123/318/71
f 20/53/72 109/57/72 113/319/72 114/320/72
f 128/321/73 129/322/73 120/323/73 121/324/73
f 129/325/74 131/326/74 123/327/74 120/328/74
f 8/88/46 4/329/46 139/330/46 138/331/46 6/332/46 7/85/46
f 112/333/75 116/334/75 117/335/75 111/336/75
f 127/337/76 128/321/76 121/324/76 122/338/76
f 125/316/77 126/339/77 124/340/77 119/317/77
f 130/18/78 134/32/78 133/34/78 132/19/78
f 12/341/79 135/17/79 136/20/79 16/342/79
f 138/343/80 139/344/80 140/345/80 137/346/80
f 137/347/81 141/348/81 142/349/81 140/350/81
f 138/351/2 144/352/2 141/353/2 137/354/2
f 143/355/82 139/356/82 140/357/82 142/358/82
f 23/359/83 143/360/83 142/361/83 141/362/83 144/363/83 24/364/83
f 3/365/10 5/366/10 6/367/10 4/368/10
l 9 17
l 10 18
