# Blender v2.93.4 OBJ File: 'sherriffs.blend'
# www.blender.org
mtllib sherriffs.mtl
o Cube
v 16.008204 17.943064 -20.000000
v 16.008204 17.943064 20.000000
v 16.008204 0.943064 20.000000
v -17.402288 17.943064 -20.000000
v -17.402288 17.943064 20.000000
v -17.402288 0.943064 20.000000
v -0.634868 28.943062 -19.999998
v -0.634868 28.943062 19.000000
v 16.008204 17.943064 19.000000
v -17.402288 17.943064 19.000000
v 16.008204 29.943064 20.000000
v 16.008204 29.943064 19.000000
v -17.402288 29.943064 20.000000
v -17.402288 29.943064 19.000000
v 16.008204 15.937738 28.940655
v -17.402288 15.943064 28.939056
v 15.409860 15.939337 28.939930
v 16.008204 16.048805 28.434677
v 15.416059 16.051521 28.434818
v 16.017565 0.939177 29.025620
v 15.419220 0.939177 29.025620
v 16.017565 0.940733 28.460295
v 15.425419 0.938826 28.464163
v -17.402288 0.943064 29.029398
v -17.402288 16.047325 28.435934
v -16.778692 15.940401 28.939344
v -16.783340 16.051519 28.434134
v -16.780190 0.935775 28.989403
v -17.400124 0.945483 28.445087
v -16.783815 0.932959 28.448019
v 0.161631 0.943064 29.029398
v -0.332632 0.943064 29.029398
v 0.149168 0.945045 28.451136
v -0.345095 0.945045 28.451136
v -0.332632 15.941694 28.939129
v 0.161631 15.941755 28.938341
v -0.345095 16.051519 28.438433
v 0.149168 16.048304 28.438433
v -17.402288 -0.003429 -20.000000
v -17.402288 -0.003429 20.000000
v 16.008204 -0.003429 -20.000000
v 16.008204 -0.003429 20.000000
v 16.008204 -0.003429 29.029398
v -17.402288 -0.003429 29.029398
v 16.008245 18.589573 20.008743
v -17.402246 18.589573 20.008743
v -17.402246 16.589573 28.702198
v 16.008245 16.584248 28.703794
v 9.566030 25.982738 -20.000000
v 9.566030 25.982738 19.000000
v -10.288416 25.982738 -20.000000
v -10.288416 25.982738 19.000000
v -9.292277 29.943064 19.000000
v -9.292277 29.943064 20.000000
v 8.068885 29.943064 20.000000
v 8.068885 29.943064 19.000000
v -0.406569 36.324093 19.000000
v -0.406569 36.324093 20.000000
v 5.128567 0.943064 20.000000
v 10.929593 0.943064 20.000000
v 5.196610 10.928312 20.000002
v 10.997635 10.928312 20.000002
v 5.128567 0.943064 20.221138
v 10.929593 0.943064 20.221138
v 5.196610 10.928312 20.221140
v 10.997635 10.928312 20.221140
v -3.442495 4.219831 19.999998
v -3.442495 4.219831 20.216188
v -13.973470 4.219831 19.999998
v -13.973470 4.219831 20.216188
v -3.442495 14.348366 19.999998
v -3.442495 14.348366 20.216188
v -13.973470 14.348366 19.999998
v -13.973470 14.348366 20.216188
vt 0.581232 0.000000
vt 0.672200 0.080521
vt 0.705696 0.189787
vt 0.672199 0.305249
vt 0.581230 0.378167
vt 0.000000 0.400471
vt 0.000000 0.208051
vt 0.378167 0.208051
vt 0.378167 0.400471
vt 0.123145 0.400471
vt 0.057484 0.400471
vt 0.000000 0.603604
vt 0.000000 0.400471
vt 0.226376 0.400471
vt 0.226376 0.411184
vt 0.226376 0.603603
vt 0.220716 0.603603
vt 0.706226 0.388880
vt 0.706226 0.378167
vt 0.932597 0.378169
vt 0.932597 0.581302
vt 0.711886 0.581300
vt 0.706226 0.581300
vt 0.711886 0.717125
vt 0.706226 0.717125
vt 0.655127 0.937431
vt 0.771912 0.939172
vt 0.771912 0.718866
vt 0.655127 0.717125
vt 0.771912 0.937452
vt 0.771912 0.717125
vt 0.882508 0.718837
vt 0.882508 0.939164
vt 0.226375 0.739429
vt 0.220716 0.739429
vt 0.969051 0.288042
vt 0.974701 0.288056
vt 0.974701 0.377838
vt 0.969051 0.377824
vt 0.892681 0.718398
vt 0.895539 0.717125
vt 0.895539 0.888183
vt 0.892361 0.888182
vt 0.252800 0.746203
vt 0.249628 0.746124
vt 0.249605 0.739429
vt 0.252800 0.739437
vt 0.658492 0.559858
vt 0.655629 0.558601
vt 0.655147 0.388836
vt 0.658347 0.388853
vt 0.355517 0.792343
vt 0.348815 0.792309
vt 0.348815 0.621358
vt 0.355517 0.621340
vt 0.342042 0.621362
vt 0.348815 0.621340
vt 0.348815 0.791124
vt 0.342042 0.791128
vt 0.898603 0.888249
vt 0.895744 0.886990
vt 0.895539 0.717156
vt 0.898603 0.717125
vt 0.246549 0.746468
vt 0.246303 0.739429
vt 0.249605 0.739449
vt 0.249605 0.746425
vt 0.882968 0.718306
vt 0.885815 0.717125
vt 0.885815 0.888060
vt 0.882508 0.888088
vt 0.335037 0.791174
vt 0.327978 0.791203
vt 0.327995 0.621421
vt 0.335037 0.621340
vt 0.335037 0.621387
vt 0.342042 0.621339
vt 0.342042 0.792408
vt 0.335066 0.792266
vt 0.327978 0.999164
vt 0.327978 0.621340
vt 0.277489 0.622174
vt 0.277476 1.000000
vt 0.889088 0.717125
vt 0.892361 0.717149
vt 0.892361 0.888099
vt 0.889532 0.886892
vt 0.229247 0.794883
vt 0.235912 0.797903
vt 0.235912 0.743711
vt 0.229829 0.739429
vt 0.355517 0.621339
vt 0.361112 0.621339
vt 0.361112 0.792271
vt 0.355517 0.792234
vt 0.361112 0.621339
vt 0.366706 0.621339
vt 0.366706 0.791107
vt 0.361112 0.791106
vt 0.889088 0.888112
vt 0.885815 0.888136
vt 0.886254 0.718369
vt 0.889088 0.717125
vt 0.655127 0.378887
vt 0.655127 0.756711
vt 0.378167 0.755991
vt 0.378167 0.378167
vt 0.378168 0.000000
vt 0.378167 0.378167
vt 0.277476 0.411184
vt 0.277476 0.400471
vt 0.964758 0.378057
vt 0.913747 0.377928
vt 0.913747 0.184895
vt 0.913747 0.179306
vt 0.913766 0.000000
vt 0.964758 0.000233
vt 0.964758 0.057665
vt 0.964758 0.123266
vt 0.655127 0.378167
vt 0.995169 0.378167
vt 0.995169 0.756333
vt 0.984500 0.756439
vt 0.984456 0.378167
vt 0.000000 0.200734
vt 0.378166 0.200733
vt 0.236493 0.797863
vt 0.242581 0.793586
vt 0.242581 0.739429
vt 0.235912 0.742443
vt 0.368425 0.778638
vt 0.375776 0.778637
vt 0.375776 0.400471
vt 0.368425 0.400471
vt 0.277476 0.621187
vt 0.368426 0.621340
vt 0.368426 0.400623
vt 0.277476 0.400471
vt 0.220885 0.694659
vt 0.000168 0.694659
vt 0.969051 0.000000
vt 0.974701 0.000014
vt 0.974701 0.091727
vt 0.969051 0.091712
vt 0.000000 0.072226
vt 0.089864 0.072226
vt 0.185796 0.000000
vt 0.286371 0.072226
vt 0.378167 0.072226
vt 0.789240 0.189787
vt 0.822747 0.080520
vt 0.913747 0.000000
vt 0.777921 0.000000
vt 0.777921 0.091795
vt 0.705696 0.192371
vt 0.777921 0.288303
vt 0.777921 0.378166
vt 0.913747 0.378166
vt 0.822747 0.305249
vt 0.970407 0.195279
vt 0.964758 0.195265
vt 0.984456 0.755988
vt 0.984456 0.378167
vt 0.932609 0.378999
vt 0.932597 0.756823
vt 0.368425 0.621340
vt 0.368425 0.734361
vt 0.367174 0.734361
vt 0.367174 0.621340
vt 0.443826 0.870182
vt 0.378167 0.869735
vt 0.378167 0.756711
vt 0.443826 0.757158
vt 0.245054 0.739432
vt 0.245054 0.805033
vt 0.243804 0.805030
vt 0.243804 0.739429
vt 0.378166 0.638657
vt 0.378166 0.751679
vt 0.376915 0.751679
vt 0.376915 0.638657
vt 0.246303 0.739432
vt 0.246303 0.805034
vt 0.245054 0.805030
vt 0.245054 0.739429
vt 0.376945 0.519564
vt 0.378166 0.519567
vt 0.378166 0.638657
vt 0.376945 0.638654
vt 0.368397 0.849004
vt 0.367174 0.849004
vt 0.367174 0.734361
vt 0.368397 0.734361
vt 0.378166 0.519564
vt 0.376945 0.519561
vt 0.376945 0.400471
vt 0.378166 0.400474
vt 0.243804 0.854072
vt 0.242581 0.854072
vt 0.242581 0.739429
vt 0.243804 0.739429
vt 0.114643 0.858627
vt 0.000000 0.858627
vt 0.000000 0.739429
vt 0.114643 0.739429
vn 0.0000 0.0000 -1.0000
vn 0.0000 0.0000 1.0000
vn -1.0000 -0.0000 0.0000
vn 1.0000 -0.0000 0.0000
vn 0.2787 0.9604 0.0000
vn -0.2932 0.9561 0.0000
vn 0.0000 1.0000 0.0000
vn -0.9999 -0.0007 -0.0117
vn 0.0016 -1.0000 -0.0011
vn 1.0000 0.0006 0.0001
vn -0.0034 -0.0018 -1.0000
vn -0.0006 0.0057 1.0000
vn 1.0000 -0.0001 -0.0079
vn -0.0160 -0.9999 0.0004
vn -1.0000 -0.0001 -0.0020
vn 0.0319 0.0047 0.9995
vn 0.0009 -0.0008 -1.0000
vn 0.0001 0.9745 0.2245
vn 0.9997 -0.0001 -0.0231
vn 1.0000 -0.0001 -0.0000
vn -0.0000 -0.0008 -1.0000
vn 0.0008 0.0060 1.0000
vn -0.9997 0.0001 0.0231
vn 0.0000 -1.0000 0.0000
vn 0.0001 1.0000 0.0001
vn 1.0000 -0.0053 -0.0005
vn 0.0001 0.0020 1.0000
vn 0.0000 -0.0135 0.9999
vn -1.0000 0.0001 0.0000
vn 0.0000 0.3440 0.9390
vn 0.7804 0.6253 0.0000
vn -0.7489 0.6627 0.0000
vn 0.0000 0.0007 1.0000
vn -0.5833 0.8123 0.0000
vn 0.6015 0.7989 0.0000
vn -0.0001 -0.9758 -0.2186
vn -1.0000 0.0068 0.0000
vn 1.0000 -0.0068 0.0000
usemtl Material
s off
f 4/1/1 51/2/1 7/3/1 49/4/1 1/5/1
f 3/6/2 2/7/2 5/8/2 6/9/2 59/10/2 60/11/2
f 4/12/3 39/13/3 40/14/3 6/15/3 5/16/3 10/17/3
f 3/18/4 42/19/4 41/20/4 1/21/4 9/22/4 2/23/4
f 2/23/4 9/22/4 12/24/4 11/25/4
f 49/26/5 7/27/5 8/28/5 50/29/5
f 51/30/6 52/31/6 8/32/6 7/33/6
f 10/17/3 5/16/3 13/34/3 14/35/3
f 56/36/7 55/37/7 11/38/7 12/39/7
f 17/40/8 19/41/8 23/42/8 21/43/8
f 21/44/9 23/45/9 22/46/9 20/47/9
f 18/48/10 15/49/10 20/50/10 22/51/10
f 19/52/11 18/53/11 22/54/11 23/55/11
f 15/56/12 17/57/12 21/58/12 20/59/12
f 27/60/13 26/61/13 28/62/13 30/63/13
f 28/64/14 24/65/14 29/66/14 30/67/14
f 16/68/15 25/69/15 29/70/15 24/71/15
f 26/72/16 16/73/16 24/74/16 28/75/16
f 25/76/17 27/77/17 30/78/17 29/79/17
f 45/80/18 46/81/18 47/82/18 48/83/18
f 31/84/19 33/85/19 38/86/19 36/87/19
f 2/88/20 45/89/20 48/90/20 15/91/20
f 33/92/21 34/93/21 37/94/21 38/95/21
f 32/96/22 31/97/22 36/98/22 35/99/22
f 34/100/23 32/101/23 35/102/23 37/103/23
f 39/104/24 41/105/24 43/106/24 44/107/24
f 39/108/1 4/1/1 1/5/1 41/109/1
f 24/110/3 6/15/3 40/14/3 44/111/3
f 6/112/25 24/113/25 32/114/25 31/115/25 20/116/25 3/117/25 60/118/25 59/119/25
f 20/50/26 43/120/26 42/19/26 3/18/26 22/51/26
f 44/121/27 43/122/27 20/123/27 24/124/27
f 5/8/28 2/7/28 45/125/28 46/126/28
f 16/127/29 47/128/29 46/129/29 5/130/29
f 15/131/30 48/132/30 47/133/30 16/134/30
f 1/135/31 49/136/31 50/137/31 9/138/31
f 4/12/32 10/17/32 52/139/32 51/140/32
f 14/141/7 13/142/7 54/143/7 53/144/7
f 46/126/33 45/125/33 11/145/33 55/146/33 58/147/33 54/148/33 13/149/33
f 8/150/1 52/151/1 10/152/1 14/153/1 53/154/1 57/155/1 56/156/1 12/157/1 9/158/1 50/159/1
f 53/144/34 54/143/34 58/160/34 57/161/34
f 56/36/35 57/161/35 58/160/35 55/37/35
f 15/162/36 16/163/36 5/164/36 2/165/36
f 61/166/37 59/167/37 63/168/37 65/169/37
f 63/170/2 64/171/2 66/172/2 65/173/2
f 62/174/7 61/175/7 65/176/7 66/177/7
f 60/178/38 62/179/38 66/180/38 64/181/38
f 59/182/24 60/183/24 64/184/24 63/185/24
f 67/186/24 68/187/24 70/188/24 69/189/24
f 69/190/3 70/191/3 74/192/3 73/193/3
f 73/194/7 74/195/7 72/196/7 71/197/7
f 71/198/4 72/199/4 68/200/4 67/201/4
f 74/202/2 70/203/2 68/204/2 72/205/2
