# Blender 3.6.5
# www.blender.org
mtllib balloon.mtl
o Sphere
v -0.021112 0.118432 0.032851
v -0.038042 0.091109 0.059195
v -0.047438 0.051642 0.073815
v -0.047438 0.007859 0.073815
v -0.038042 -0.031562 0.059195
v -0.016324 -0.070133 0.025400
v -0.035521 0.118432 0.016222
v -0.064006 0.091109 0.029231
v -0.079814 0.051642 0.036450
v -0.079814 0.007859 0.036450
v -0.064006 -0.031562 0.029231
v -0.027464 -0.070133 0.012543
v -0.038652 0.118432 -0.005557
v -0.069649 0.091109 -0.010014
v -0.086850 0.051642 -0.012487
v -0.086850 0.007859 -0.012487
v -0.069649 -0.031562 -0.010014
v -0.029886 -0.070133 -0.004297
v -0.029512 0.118432 -0.025572
v -0.053178 0.091109 -0.046079
v -0.066312 0.051642 -0.057460
v -0.066312 0.007859 -0.057460
v -0.053178 -0.031562 -0.046079
v -0.022818 -0.070133 -0.019772
v -0.011002 0.118432 -0.037468
v -0.019824 0.091109 -0.067515
v -0.024720 0.051642 -0.084189
v -0.024720 0.007859 -0.084189
v -0.019824 -0.031562 -0.067515
v -0.008506 -0.070133 -0.028970
v 0.000000 0.128185 0.000000
v 0.011002 0.118432 -0.037468
v 0.019824 0.091109 -0.067515
v 0.024720 0.051642 -0.084189
v 0.024720 0.007859 -0.084189
v 0.019824 -0.031562 -0.067515
v 0.008506 -0.070133 -0.028970
v -0.000000 -0.091492 -0.000000
v 0.029512 0.118432 -0.025572
v 0.053178 0.091109 -0.046079
v 0.066312 0.051642 -0.057460
v 0.066312 0.007859 -0.057460
v 0.053178 -0.031562 -0.046079
v 0.022818 -0.070133 -0.019772
v 0.038652 0.118432 -0.005557
v 0.069649 0.091109 -0.010014
v 0.086850 0.051642 -0.012487
v 0.086850 0.007859 -0.012487
v 0.069649 -0.031562 -0.010014
v 0.029886 -0.070133 -0.004297
v 0.035521 0.118432 0.016222
v 0.064006 0.091109 0.029231
v 0.079814 0.051642 0.036450
v 0.079814 0.007859 0.036450
v 0.064006 -0.031562 0.029231
v 0.027464 -0.070133 0.012543
v 0.021112 0.118432 0.032851
v 0.038042 0.091109 0.059195
v 0.047438 0.051642 0.073815
v 0.047438 0.007859 0.073815
v 0.038042 -0.031562 0.059195
v 0.016324 -0.070133 0.025400
v 0.000000 0.118432 0.039050
v 0.000000 0.091109 0.070365
v 0.000000 0.051642 0.087743
v 0.000000 0.007859 0.087743
v 0.000000 -0.031562 0.070365
v 0.000000 -0.070133 0.030193
v 0.002654 -0.046607 -0.000000
v 0.000000 -0.097235 0.000000
v -0.010472 -0.069610 0.004782
v -0.006224 -0.069610 0.009685
v -0.011395 -0.069610 -0.001638
v -0.008700 -0.069610 -0.007539
v -0.003243 -0.069610 -0.011046
v 0.003243 -0.069610 -0.011046
v 0.008700 -0.069610 -0.007539
v 0.011395 -0.069610 -0.001638
v 0.010472 -0.069610 0.004782
v 0.006224 -0.069610 0.009685
v 0.000000 -0.069610 0.011512
v -0.018564 -0.083633 0.008478
v -0.011034 -0.083633 0.017168
v -0.020200 -0.083633 -0.002904
v -0.015424 -0.083633 -0.013365
v -0.005750 -0.083633 -0.019582
v 0.005750 -0.083633 -0.019582
v -0.000000 -0.083633 -0.000000
v 0.015423 -0.083633 -0.013365
v 0.020200 -0.083633 -0.002904
v 0.018564 -0.083633 0.008478
v 0.011034 -0.083633 0.017168
v 0.000000 -0.083633 0.020408
vn -0.1993 -0.7069 0.6787
vn -0.2817 -0.0000 0.9595
vn -0.1895 0.7399 0.6455
vn -0.0220 -0.9996 -0.0191
vn -0.2595 -0.3896 0.8837
vn -0.2595 0.3892 0.8838
vn -0.0710 0.9677 0.2417
vn -0.1904 0.9678 0.1650
vn -0.5346 -0.7069 0.4632
vn -0.7557 -0.0000 0.6549
vn -0.5084 0.7399 0.4406
vn -0.0265 -0.9996 0.0121
vn -0.6960 -0.3896 0.6031
vn -0.6962 0.3892 0.6032
vn -0.7002 -0.7069 0.1007
vn -0.9898 -0.0000 0.1423
vn -0.6659 0.7399 0.0957
vn 0.0158 -0.9996 0.0245
vn -0.9116 -0.3896 0.1311
vn -0.9118 0.3892 0.1311
vn -0.2493 0.9678 0.0359
vn -0.9096 -0.0000 -0.4154
vn -0.6120 0.7399 -0.2795
vn -0.0082 -0.9996 -0.0280
vn -0.8378 -0.3896 -0.3826
vn -0.8379 0.3892 -0.3827
vn -0.2291 0.9678 -0.1046
vn -0.6434 -0.7069 -0.2938
vn -0.0158 -0.9996 0.0245
vn -0.4979 -0.3896 -0.7748
vn -0.4980 0.3892 -0.7749
vn -0.1362 0.9678 -0.2119
vn -0.3824 -0.7069 -0.5951
vn -0.5406 -0.0000 -0.8413
vn -0.3637 0.7399 -0.5660
vn 0.0265 -0.9996 0.0121
vn -0.0000 -0.3896 -0.9210
vn -0.0000 0.3892 -0.9212
vn -0.0000 0.9678 -0.2519
vn -0.0000 -0.7069 -0.7074
vn -0.0000 -0.0000 -1.0000
vn -0.0000 0.7399 -0.6728
vn 0.4980 0.3892 -0.7749
vn 0.1362 0.9678 -0.2119
vn 0.3824 -0.7069 -0.5951
vn 0.5406 -0.0000 -0.8413
vn 0.3637 0.7399 -0.5660
vn 0.0082 -0.9996 -0.0280
vn 0.4979 -0.3896 -0.7748
vn 0.6434 -0.7069 -0.2938
vn 0.9096 -0.0000 -0.4154
vn 0.6120 0.7399 -0.2795
vn -0.0000 -0.9996 0.0292
vn 0.8378 -0.3896 -0.3826
vn 0.8379 0.3892 -0.3827
vn 0.2291 0.9677 -0.1046
vn 0.7002 -0.7069 0.1007
vn 0.9898 -0.0000 0.1423
vn 0.6659 0.7399 0.0957
vn 0.0220 -0.9996 -0.0191
vn 0.9116 -0.3896 0.1311
vn 0.9118 0.3892 0.1311
vn 0.2493 0.9678 0.0359
vn 0.5084 0.7399 0.4406
vn -0.0289 -0.9996 -0.0042
vn 0.6960 -0.3896 0.6031
vn 0.6962 0.3892 0.6032
vn 0.1904 0.9677 0.1650
vn 0.5346 -0.7069 0.4632
vn 0.7557 -0.0000 0.6549
vn 0.0289 -0.9996 -0.0041
vn 0.2595 -0.3896 0.8837
vn 0.2595 0.3892 0.8838
vn 0.0710 0.9677 0.2417
vn 0.1993 -0.7069 0.6787
vn 0.2817 -0.0000 0.9595
vn 0.1895 0.7399 0.6455
vn 0.8455 0.5200 0.1216
vn -0.8455 0.5200 0.1216
vn 0.7770 0.5200 -0.3548
vn -0.6456 0.5200 0.5594
vn 0.2407 0.5200 0.8196
vn -0.4618 0.5200 -0.7186
vn -0.2407 0.5200 0.8196
vn 0.4618 0.5200 -0.7186
vn 0.6456 0.5200 0.5594
vn -0.7770 0.5200 -0.3548
vn -0.0000 0.5200 -0.8542
vn -0.0000 -1.0000 -0.0000
vt 0.503492 0.268872
vt 0.401922 0.315257
vt 0.386238 0.206175
vt 0.496762 0.222066
vt 0.484864 0.545200
vt 0.594391 0.545200
vt 0.594391 0.682622
vt 0.484864 0.682622
vt 0.014814 0.113653
vt 0.098822 0.142145
vt 0.090600 0.202321
vt 0.000000 0.222086
vt 0.579831 0.317932
vt 0.534459 0.304610
vt 0.562531 0.260928
vt 0.579831 0.266008
vt 0.386244 0.558809
vt 0.386244 0.669013
vt 0.693119 0.558809
vt 0.693119 0.669013
vt 0.199351 0.184306
vt 0.116368 0.257621
vt 0.432019 0.105929
vt 0.516406 0.179051
vt 0.594384 0.798230
vt 0.484857 0.798230
vt 0.046432 0.321734
vt 0.656170 0.268872
vt 0.625203 0.304610
vt 0.597131 0.260928
vt 0.608938 0.247302
vt 0.386238 0.761723
vt 0.693114 0.761723
vt 0.524728 0.046348
vt 0.556187 0.153486
vt 0.594373 0.855317
vt 0.484845 0.855317
vt 0.167945 0.290489
vt 0.139370 0.380960
vt 0.603475 0.153486
vt 0.643255 0.179051
vt 0.604014 0.213054
vt 0.588846 0.203306
vt 0.395512 0.074296
vt 0.511119 0.000000
vt 0.003397 0.363942
vt 0.119287 0.437796
vt 0.098607 0.437796
vt 0.208134 0.437796
vt 0.208146 0.494883
vt 0.098619 0.494883
vt 0.228954 0.290489
vt 0.249304 0.380960
vt 0.550723 0.247302
vt 0.648542 0.000000
vt 0.634933 0.046348
vt 0.256374 0.437796
vt 0.662899 0.222066
vt 0.611504 0.229455
vt 0.000000 0.531390
vt 0.098625 0.610490
vt 0.000005 0.624099
vt 0.306875 0.531390
vt 0.306881 0.624100
vt 0.208153 0.610490
vt 0.280026 0.257621
vt 0.727643 0.105929
vt 0.341333 0.321734
vt 0.570816 0.203306
vt 0.098625 0.747913
vt 0.000005 0.734304
vt 0.306881 0.734304
vt 0.208153 0.747913
vt 0.304946 0.202321
vt 0.773423 0.206175
vt 0.386238 0.222086
vt 0.306875 0.827014
vt 0.208146 0.863520
vt 0.295803 0.142145
vt 0.757739 0.315257
vt 0.098619 0.863520
vt 0.369762 0.113654
vt 0.548157 0.229455
vt 0.000000 0.827014
vt 0.685571 0.398544
vt 0.791738 0.429592
vt 0.901265 0.429592
vt 0.901272 0.545200
vt 0.791745 0.545200
vt 0.255498 0.096200
vt 0.297135 0.030863
vt 0.693119 0.466099
vt 0.693125 0.558809
vt 0.999995 0.466099
vt 1.000000 0.558809
vt 0.579831 0.429592
vt 0.901272 0.682622
vt 0.791745 0.682622
vt 0.196829 0.079072
vt 0.191417 0.000000
vt 0.555647 0.213054
vt 0.693125 0.669013
vt 1.000000 0.669013
vt 0.138422 0.096200
vt 0.086172 0.030863
vt 0.791738 0.798229
vt 0.693119 0.761723
vt 0.999994 0.761723
vt 0.901265 0.798229
vt 0.474091 0.398544
vt 0.386238 0.466099
vt 0.484857 0.429592
vt 0.594384 0.429592
vt 0.693114 0.466099
vt 0.341958 0.575422
vt 0.341958 0.557392
vt 0.377034 0.550426
vt 0.377034 0.582389
vt 0.306881 0.570300
vt 0.311921 0.552988
vt 0.340811 0.554144
vt 0.331876 0.584833
vt 0.341959 0.590591
vt 0.377036 0.609278
vt 0.306881 0.471651
vt 0.306882 0.456483
vt 0.341958 0.437796
vt 0.341957 0.464685
vt 0.306882 0.504849
vt 0.306881 0.489681
vt 0.341957 0.496648
vt 0.341958 0.523537
vt 0.341959 0.504849
vt 0.341958 0.489681
vt 0.377034 0.496648
vt 0.377036 0.523537
vt 0.341958 0.471651
vt 0.341959 0.456483
vt 0.377036 0.437796
vt 0.377034 0.464685
vt 0.341959 0.542224
vt 0.377036 0.523537
vt 0.306881 0.535723
vt 0.331876 0.523537
vt 0.830149 0.056148
vt 0.838222 0.112297
vt 0.806584 0.107748
vt 0.782428 0.086817
vt 0.773423 0.056148
vt 0.782428 0.025480
vt 0.806584 0.004549
vt 0.838222 -0.000000
vt 0.867297 0.013278
vt 0.884577 0.040167
vt 0.884577 0.072130
vt 0.867297 0.099019
s 0
usemtl Material.001
f 68/1/1 67/2/1 5/3/1 6/4/1
f 66/5/2 65/6/2 3/7/2 4/8/2
f 64/9/3 63/10/3 1/11/3 2/12/3
f 56/13/4 62/14/4 80/15/4 79/16/4
f 67/17/5 66/5/5 4/8/5 5/18/5
f 65/6/6 64/19/6 2/20/6 3/7/6
f 63/10/7 31/21/7 1/11/7
f 1/11/8 31/21/8 7/22/8
f 6/4/9 5/3/9 11/23/9 12/24/9
f 4/8/10 3/7/10 9/25/10 10/26/10
f 2/12/11 1/11/11 7/22/11 8/27/11
f 44/28/12 50/29/12 78/30/12 77/31/12
f 5/18/13 4/8/13 10/26/13 11/32/13
f 3/7/14 2/20/14 8/33/14 9/25/14
f 12/24/15 11/23/15 17/34/15 18/35/15
f 10/26/16 9/25/16 15/36/16 16/37/16
f 8/27/17 7/22/17 13/38/17 14/39/17
f 24/40/18 30/41/18 75/42/18 74/43/18
f 11/23/19 10/44/19 16/45/19 17/34/19
f 9/46/20 8/27/20 14/39/20 15/47/20
f 7/22/21 31/21/21 13/38/21
f 16/48/22 15/49/22 21/50/22 22/51/22
f 14/39/23 13/38/23 19/52/23 20/53/23
f 62/14/24 68/1/24 81/54/24 80/15/24
f 17/34/25 16/45/25 22/55/25 23/56/25
f 15/47/26 14/39/26 20/53/26 21/57/26
f 13/38/27 31/21/27 19/52/27
f 18/35/28 17/34/28 23/56/28 24/40/28
f 37/58/29 44/28/29 77/31/29 76/59/29
f 23/60/30 22/51/30 28/61/30 29/62/30
f 21/50/31 20/63/31 26/64/31 27/65/31
f 19/52/32 31/21/32 25/66/32
f 24/40/33 23/56/33 29/67/33 30/41/33
f 22/51/34 21/50/34 27/65/34 28/61/34
f 20/53/35 19/52/35 25/66/35 26/68/35
f 18/35/36 24/40/36 74/43/36 73/69/36
f 29/62/37 28/61/37 35/70/37 36/71/37
f 27/65/38 26/64/38 33/72/38 34/73/38
f 25/66/39 31/21/39 32/74/39
f 30/41/40 29/67/40 36/75/40 37/58/40
f 28/61/41 27/65/41 34/73/41 35/70/41
f 26/68/42 25/66/42 32/74/42 33/76/42
f 34/73/43 33/72/43 40/77/43 41/78/43
f 32/74/44 31/21/44 39/79/44
f 37/58/45 36/75/45 43/80/45 44/28/45
f 35/70/46 34/73/46 41/78/46 42/81/46
f 33/76/47 32/74/47 39/79/47 40/82/47
f 68/1/48 6/4/48 72/83/48 81/54/48
f 36/71/49 35/70/49 42/81/49 43/84/49
f 44/28/50 43/80/50 49/85/50 50/29/50
f 42/86/51 41/87/51 47/88/51 48/89/51
f 40/82/52 39/79/52 45/90/52 46/91/52
f 30/41/53 37/58/53 76/59/53 75/42/53
f 43/92/54 42/86/54 48/89/54 49/93/54
f 41/87/55 40/94/55 46/95/55 47/88/55
f 39/79/56 31/21/56 45/90/56
f 50/29/57 49/85/57 55/96/57 56/13/57
f 48/89/58 47/88/58 53/97/58 54/98/58
f 46/91/59 45/90/59 51/99/59 52/100/59
f 6/4/60 12/24/60 71/101/60 72/83/60
f 49/93/61 48/89/61 54/98/61 55/102/61
f 47/88/62 46/95/62 52/103/62 53/97/62
f 45/90/63 31/21/63 51/99/63
f 52/100/64 51/99/64 57/104/64 58/105/64
f 50/29/65 56/13/65 79/16/65 78/30/65
f 55/102/66 54/98/66 60/106/66 61/107/66
f 53/97/67 52/103/67 58/108/67 59/109/67
f 51/99/68 31/21/68 57/104/68
f 56/13/69 55/96/69 61/110/69 62/14/69
f 54/98/70 53/97/70 59/109/70 60/106/70
f 12/24/71 18/35/71 73/69/71 71/101/71
f 61/111/72 60/112/72 66/5/72 67/17/72
f 59/113/73 58/114/73 64/19/73 65/6/73
f 57/104/74 31/21/74 63/10/74
f 62/14/75 61/110/75 67/2/75 68/1/75
f 60/112/76 59/113/76 65/6/76 66/5/76
f 58/105/77 57/104/77 63/10/77 64/9/77
f 78/115/78 79/116/78 91/117/78 90/118/78
f 71/119/79 73/120/79 84/121/79 82/122/79
f 77/123/80 78/115/80 90/118/80 89/124/80
f 72/125/81 71/126/81 82/127/81 83/128/81
f 80/129/82 81/130/82 93/131/82 92/132/82
f 74/133/83 75/134/83 86/135/83 85/136/83
f 81/130/84 72/125/84 83/128/84 93/131/84
f 76/137/85 77/138/85 89/139/85 87/140/85
f 79/116/86 80/141/86 92/142/86 91/117/86
f 73/120/87 74/143/87 85/144/87 84/121/87
f 75/134/88 76/137/88 87/140/88 86/135/88
f 88/145/89 93/146/89 83/147/89
f 88/145/89 83/147/89 82/148/89
f 88/145/89 82/148/89 84/149/89
f 88/145/89 84/149/89 85/150/89
f 88/145/89 85/150/89 86/151/89
f 88/145/89 86/151/89 87/152/89
f 88/145/89 87/152/89 89/153/89
f 88/145/89 89/153/89 90/154/89
f 88/145/89 90/154/89 91/155/89
f 88/145/89 91/155/89 92/156/89
f 88/145/89 92/156/89 93/146/89
l 38 69
l 38 70
