# Blender v2.93.4 OBJ File: 'hammer.blend'
# www.blender.org
mtllib hammer.mtl
o Cylinder
v 0.000000 -2.237151 -0.362807
v 0.000000 4.526976 -0.240066
v 0.070780 -2.237151 -0.355836
v 0.046834 4.526976 -0.235453
v 0.138840 -2.237151 -0.335190
v 0.091869 4.526976 -0.221792
v 0.201565 -2.237151 -0.301663
v 0.133373 4.526976 -0.199607
v 0.256543 -2.237151 -0.256543
v 0.169752 4.526976 -0.169752
v 0.301663 -2.237151 -0.201565
v 0.199607 4.526976 -0.133373
v 0.335190 -2.237151 -0.138840
v 0.221792 4.526976 -0.091869
v 0.355836 -2.237151 -0.070780
v 0.235453 4.526976 -0.046834
v 0.362807 -2.237151 -0.000000
v 0.240066 4.526976 -0.000000
v 0.355836 -2.237151 0.070780
v 0.235453 4.526976 0.046834
v 0.335190 -2.237151 0.138840
v 0.221792 4.526976 0.091869
v 0.301663 -2.237151 0.201565
v 0.199607 4.526976 0.133373
v 0.256543 -2.237151 0.256543
v 0.169752 4.526976 0.169752
v 0.201565 -2.237151 0.301663
v 0.133373 4.526976 0.199607
v 0.138840 -2.237151 0.335190
v 0.091869 4.526976 0.221792
v 0.070780 -2.237151 0.355836
v 0.046834 4.526976 0.235453
v 0.000000 -2.237151 0.362807
v 0.000000 4.526976 0.240066
v -0.070780 -2.237151 0.355836
v -0.046834 4.526976 0.235453
v -0.138840 -2.237151 0.335190
v -0.091869 4.526976 0.221792
v -0.201565 -2.237151 0.301663
v -0.133373 4.526976 0.199607
v -0.256543 -2.237151 0.256543
v -0.169752 4.526976 0.169752
v -0.301663 -2.237151 0.201565
v -0.199607 4.526976 0.133373
v -0.335190 -2.237151 0.138840
v -0.221792 4.526976 0.091869
v -0.355836 -2.237151 0.070780
v -0.235453 4.526976 0.046834
v -0.362807 -2.237151 -0.000000
v -0.240066 4.526976 -0.000000
v -0.355836 -2.237151 -0.070780
v -0.235453 4.526976 -0.046834
v -0.335190 -2.237151 -0.138840
v -0.221792 4.526976 -0.091869
v -0.301663 -2.237151 -0.201565
v -0.199607 4.526976 -0.133373
v -0.256543 -2.237151 -0.256543
v -0.169752 4.526976 -0.169752
v -0.201565 -2.237151 -0.301663
v -0.133373 4.526976 -0.199607
v -0.138840 -2.237151 -0.335190
v -0.091869 4.526976 -0.221792
v -0.070780 -2.237151 -0.355836
v -0.046834 4.526976 -0.235453
vt 0.018142 0.630823
vt 0.020430 0.000116
vt 0.024817 0.000124
vt 0.024773 0.630835
vt 0.029120 0.000116
vt 0.031276 0.630823
vt 0.033174 0.000091
vt 0.037402 0.630787
vt 0.036822 0.000052
vt 0.042915 0.630728
vt 0.039924 -0.000000
vt 0.047604 0.630648
vt 0.056029 -0.000000
vt 0.059677 0.000052
vt 0.053117 0.630728
vt 0.063731 0.000091
vt 0.059243 0.630787
vt 0.068034 0.000116
vt 0.065746 0.630823
vt 0.072421 0.000124
vt 0.072377 0.630835
vt 0.076724 0.000116
vt 0.078880 0.630823
vt 0.080778 0.000091
vt 0.085006 0.630787
vt 0.084426 0.000052
vt 0.090519 0.630728
vt 0.087528 -0.000000
vt 0.095208 0.630648
vt 0.103633 -0.000000
vt 0.107281 0.000052
vt 0.100721 0.630728
vt 0.111335 0.000091
vt 0.106847 0.630787
vt 0.115638 0.000116
vt 0.113350 0.630823
vt 0.120025 0.000124
vt 0.119980 0.630835
vt 0.124328 0.000116
vt 0.126484 0.630823
vt 0.128382 0.000091
vt 0.132610 0.630787
vt 0.132030 0.000052
vt 0.138123 0.630728
vt 0.135132 -0.000000
vt 0.142812 0.630648
vt 0.151237 -0.000000
vt 0.154885 0.000052
vt 0.148325 0.630728
vt 0.158938 0.000092
vt 0.154451 0.630787
vt 0.163242 0.000116
vt 0.160954 0.630823
vt 0.167629 0.000124
vt 0.167584 0.630835
vt 0.171932 0.000116
vt 0.174088 0.630823
vt 0.175986 0.000092
vt 0.180214 0.630787
vt 0.179634 0.000052
vt 0.185727 0.630728
vt 0.182736 -0.000000
vt 0.190416 0.630648
vt 0.000000 0.630648
vt 0.008425 -0.000000
vt 0.012073 0.000052
vt 0.005513 0.630728
vt 0.091789 0.675381
vt 0.087401 0.675381
vt 0.083098 0.674526
vt 0.079045 0.672847
vt 0.075397 0.670409
vt 0.072294 0.667307
vt 0.069857 0.663659
vt 0.068178 0.659605
vt 0.067322 0.655302
vt 0.067322 0.650915
vt 0.068178 0.646612
vt 0.069857 0.642558
vt 0.072294 0.638910
vt 0.075397 0.635808
vt 0.079045 0.633370
vt 0.083098 0.631691
vt 0.087401 0.630835
vt 0.091789 0.630835
vt 0.096092 0.631691
vt 0.100145 0.633370
vt 0.103793 0.635808
vt 0.106896 0.638910
vt 0.109333 0.642558
vt 0.111012 0.646612
vt 0.111868 0.650915
vt 0.111868 0.655302
vt 0.111012 0.659605
vt 0.109333 0.663659
vt 0.106896 0.667307
vt 0.103793 0.670409
vt 0.100145 0.672847
vt 0.096092 0.674526
vt 0.016127 0.000091
vt 0.011639 0.630787
vt 0.067322 0.667812
vt 0.066028 0.674315
vt 0.063491 0.680441
vt 0.059807 0.685954
vt 0.055119 0.690642
vt 0.049605 0.694326
vt 0.043480 0.696864
vt 0.036976 0.698157
vt 0.030346 0.698157
vt 0.023842 0.696864
vt 0.017717 0.694326
vt 0.012203 0.690643
vt 0.007515 0.685954
vt 0.003831 0.680441
vt 0.001294 0.674315
vt -0.000000 0.667812
vt -0.000000 0.661181
vt 0.001294 0.654678
vt 0.003831 0.648552
vt 0.007515 0.643039
vt 0.012203 0.638350
vt 0.017717 0.634666
vt 0.023842 0.632129
vt 0.030346 0.630835
vt 0.036976 0.630835
vt 0.043480 0.632129
vt 0.049605 0.634666
vt 0.055119 0.638350
vt 0.059807 0.643039
vt 0.063491 0.648552
vt 0.066028 0.654678
vt 0.067322 0.661181
vn 0.0980 0.0181 -0.9950
vn 0.2902 0.0181 -0.9568
vn 0.4713 0.0181 -0.8818
vn 0.6343 0.0181 -0.7729
vn 0.7729 0.0181 -0.6343
vn 0.8818 0.0181 -0.4713
vn 0.9568 0.0181 -0.2902
vn 0.9950 0.0181 -0.0980
vn 0.9950 0.0181 0.0980
vn 0.9568 0.0181 0.2902
vn 0.8818 0.0181 0.4713
vn 0.7729 0.0181 0.6343
vn 0.6343 0.0181 0.7729
vn 0.4713 0.0181 0.8818
vn 0.2902 0.0181 0.9568
vn 0.0980 0.0181 0.9950
vn -0.0980 0.0181 0.9950
vn -0.2902 0.0181 0.9568
vn -0.4713 0.0181 0.8818
vn -0.6343 0.0181 0.7729
vn -0.7729 0.0181 0.6343
vn -0.8818 0.0181 0.4713
vn -0.9568 0.0181 0.2902
vn -0.9950 0.0181 0.0980
vn -0.9950 0.0181 -0.0980
vn -0.9568 0.0181 -0.2902
vn -0.8818 0.0181 -0.4713
vn -0.7729 0.0181 -0.6343
vn -0.6343 0.0181 -0.7729
vn -0.4713 0.0181 -0.8818
vn 0.0000 1.0000 0.0000
vn -0.2902 0.0181 -0.9568
vn -0.0980 0.0181 -0.9950
vn 0.0000 -1.0000 0.0000
usemtl Material.001
s off
f 1/1/1 2/2/1 4/3/1 3/4/1
f 3/4/2 4/3/2 6/5/2 5/6/2
f 5/6/3 6/5/3 8/7/3 7/8/3
f 7/8/4 8/7/4 10/9/4 9/10/4
f 9/10/5 10/9/5 12/11/5 11/12/5
f 11/12/6 12/13/6 14/14/6 13/15/6
f 13/15/7 14/14/7 16/16/7 15/17/7
f 15/17/8 16/16/8 18/18/8 17/19/8
f 17/19/9 18/18/9 20/20/9 19/21/9
f 19/21/10 20/20/10 22/22/10 21/23/10
f 21/23/11 22/22/11 24/24/11 23/25/11
f 23/25/12 24/24/12 26/26/12 25/27/12
f 25/27/13 26/26/13 28/28/13 27/29/13
f 27/29/14 28/30/14 30/31/14 29/32/14
f 29/32/15 30/31/15 32/33/15 31/34/15
f 31/34/16 32/33/16 34/35/16 33/36/16
f 33/36/17 34/35/17 36/37/17 35/38/17
f 35/38/18 36/37/18 38/39/18 37/40/18
f 37/40/19 38/39/19 40/41/19 39/42/19
f 39/42/20 40/41/20 42/43/20 41/44/20
f 41/44/21 42/43/21 44/45/21 43/46/21
f 43/46/22 44/47/22 46/48/22 45/49/22
f 45/49/23 46/48/23 48/50/23 47/51/23
f 47/51/24 48/50/24 50/52/24 49/53/24
f 49/53/25 50/52/25 52/54/25 51/55/25
f 51/55/26 52/54/26 54/56/26 53/57/26
f 53/57/27 54/56/27 56/58/27 55/59/27
f 55/59/28 56/58/28 58/60/28 57/61/28
f 57/61/29 58/60/29 60/62/29 59/63/29
f 59/64/30 60/65/30 62/66/30 61/67/30
f 4/68/31 2/69/31 64/70/31 62/71/31 60/72/31 58/73/31 56/74/31 54/75/31 52/76/31 50/77/31 48/78/31 46/79/31 44/80/31 42/81/31 40/82/31 38/83/31 36/84/31 34/85/31 32/86/31 30/87/31 28/88/31 26/89/31 24/90/31 22/91/31 20/92/31 18/93/31 16/94/31 14/95/31 12/96/31 10/97/31 8/98/31 6/99/31
f 61/67/32 62/66/32 64/100/32 63/101/32
f 63/101/33 64/100/33 2/2/33 1/1/33
f 1/102/34 3/103/34 5/104/34 7/105/34 9/106/34 11/107/34 13/108/34 15/109/34 17/110/34 19/111/34 21/112/34 23/113/34 25/114/34 27/115/34 29/116/34 31/117/34 33/118/34 35/119/34 37/120/34 39/121/34 41/122/34 43/123/34 45/124/34 47/125/34 49/126/34 51/127/34 53/128/34 55/129/34 57/130/34 59/131/34 61/132/34 63/133/34
o Cylinder.001
v -1.930814 4.853373 -1.430998
v 1.836882 4.853278 -1.450025
v -1.930401 4.574284 -1.403072
v 1.829842 4.572575 -1.411422
v -1.929662 4.306224 -1.320941
v 1.824315 4.305653 -1.322302
v -1.928925 4.059472 -1.188166
v 1.822109 4.059819 -1.187648
v -1.928333 3.843372 -1.010008
v 1.822035 3.843424 -1.009956
v -1.928264 3.665797 -0.793517
v 1.822035 3.665797 -0.793517
v -1.928264 3.533809 -0.546584
v 1.822035 3.533808 -0.546584
v -1.928264 3.452531 -0.278646
v 1.822035 3.452530 -0.278646
v -1.928264 3.425086 0.000000
v 1.822035 3.425086 0.000000
v -1.928264 3.452531 0.278646
v 1.822035 3.452530 0.278646
v -1.928264 3.533809 0.546584
v 1.822035 3.533808 0.546584
v -1.928264 3.665797 0.793517
v 1.822035 3.665797 0.793517
v -1.928264 3.843424 1.009956
v 1.822035 3.843424 1.009956
v -1.928264 4.059863 1.187583
v 1.822035 4.059862 1.187583
v -1.928484 4.306706 1.319787
v 1.822035 4.306796 1.319571
v -1.929334 4.574512 1.401965
v 1.822035 4.574734 1.400849
v -1.930063 4.853379 1.430205
v 1.822035 4.853380 1.428294
v -1.930133 5.132410 1.402797
v 1.822483 5.132118 1.401317
v -1.929497 5.400462 1.320783
v 1.824014 5.400765 1.321521
v -1.928612 5.647102 1.187890
v 1.825647 5.649022 1.190785
v -1.928264 5.863336 1.009956
v 1.826531 5.866703 1.013350
v -1.928264 6.040963 0.793517
v 1.826258 6.044683 0.796025
v -1.928264 6.172951 0.546584
v 1.824771 6.175631 0.547706
v -1.928264 6.254230 0.278646
v 1.822914 6.255142 0.278832
v -1.928264 6.281673 0.000000
v 1.822036 6.281675 0.000000
v -1.928264 6.254230 -0.278646
v 1.822057 6.254272 -0.278655
v -1.928264 6.172951 -0.546584
v 1.823323 6.175323 -0.547554
v -1.928264 6.040963 -0.793517
v 1.827370 6.049484 -0.799118
v -1.928369 5.863416 -1.010035
v 1.833785 5.878306 -1.024627
v -1.929099 5.647391 -1.188318
v 1.840553 5.664302 -1.213131
v -1.929886 5.400625 -1.321161
v 1.844086 5.413524 -1.351916
v -1.930588 5.132505 -1.403268
v 1.842608 5.138119 -1.431667
vt 0.493224 0.431659
vt 0.492011 0.000784
vt 0.521054 0.001577
vt 0.521428 0.431599
vt 0.552036 0.002201
vt 0.552069 0.431506
vt 0.583946 0.002451
vt 0.583945 0.431419
vt 0.615833 0.002462
vt 0.615835 0.431354
vt 0.646540 0.002470
vt 0.646540 0.431354
vt 0.674885 0.002483
vt 0.674885 0.431367
vt 0.445292 0.860543
vt 0.445292 0.431659
vt 0.471916 0.431659
vt 0.471916 0.860543
vt 0.501499 0.431659
vt 0.501499 0.860543
vt 0.532904 0.431659
vt 0.532904 0.860543
vt 0.564924 0.431659
vt 0.564924 0.860543
vt 0.596329 0.431659
vt 0.596329 0.860543
vt 0.625911 0.431659
vt 0.625911 0.860543
vt 0.652535 0.431659
vt 0.652535 0.860543
vt 0.190416 0.860992
vt 0.190416 0.432108
vt 0.217065 0.432110
vt 0.217052 0.861019
vt 0.246665 0.432111
vt 0.246627 0.861118
vt 0.278078 0.432112
vt 0.278057 0.861202
vt 0.310104 0.432061
vt 0.310121 0.861210
vt 0.341564 0.431885
vt 0.341538 0.861136
vt 0.371266 0.431697
vt 0.371080 0.861034
vt 0.398004 0.431594
vt 0.397659 0.860992
vt 0.420664 0.431622
vt 0.420268 0.860989
vt 0.190778 0.431377
vt 0.190416 0.002010
vt 0.215452 0.002156
vt 0.215637 0.431353
vt 0.243914 0.002351
vt 0.243955 0.431335
vt 0.274645 0.002440
vt 0.274645 0.431324
vt 0.306527 0.002434
vt 0.306527 0.431321
vt 0.338433 0.002293
vt 0.338376 0.431325
vt 0.369411 0.001841
vt 0.368968 0.431336
vt 0.398449 0.001124
vt 0.397134 0.431366
vt 0.424263 0.000374
vt 0.421844 0.431474
vt 0.445292 0.000000
vt 0.442119 0.431594
vt 0.830357 0.431659
vt 0.862389 0.436566
vt 0.893019 0.447852
vt 0.920614 0.465563
vt 0.943585 0.488944
vt 0.960904 0.516580
vt 0.972324 0.546878
vt 0.977927 0.578555
vt 0.977825 0.610604
vt 0.971755 0.642044
vt 0.959767 0.671747
vt 0.942296 0.698633
vt 0.919855 0.721590
vt 0.893267 0.739618
vt 0.863626 0.751981
vt 0.832153 0.758230
vt 0.800103 0.758230
vt 0.768668 0.752110
vt 0.739015 0.740028
vt 0.712289 0.722393
vt 0.689516 0.699882
vt 0.671573 0.673362
vt 0.659149 0.643850
vt 0.652720 0.612482
vt 0.652535 0.580463
vt 0.658600 0.549022
vt 0.670682 0.519369
vt 0.688317 0.492643
vt 0.710828 0.469871
vt 0.737348 0.451928
vt 0.766856 0.439496
vt 0.798192 0.432739
vt 0.448488 0.431593
vt 0.466234 0.000147
vt 0.468589 0.431651
vt 0.733628 0.289055
vt 0.710983 0.266338
vt 0.693244 0.239630
vt 0.681064 0.209991
vt 0.674885 0.178564
vt 0.674894 0.146543
vt 0.681141 0.115138
vt 0.693394 0.085555
vt 0.711184 0.058931
vt 0.733825 0.036290
vt 0.760449 0.018500
vt 0.790032 0.006247
vt 0.821437 -0.000000
vt 0.853457 -0.000000
vt 0.884870 0.006221
vt 0.914506 0.018386
vt 0.941207 0.036121
vt 0.963885 0.058787
vt 0.981631 0.085484
vt 0.993793 0.115126
vt 1.000000 0.146543
vt 1.000000 0.178563
vt 0.993753 0.209968
vt 0.981499 0.239551
vt 0.963710 0.266175
vt 0.941068 0.288816
vt 0.914445 0.306606
vt 0.884862 0.318859
vt 0.853458 0.325119
vt 0.821427 0.325207
vt 0.789975 0.319048
vt 0.760316 0.306854
vn -0.0036 -0.1180 -0.9930
vn -0.0013 -0.3049 -0.9524
vn -0.0001 -0.4771 -0.8788
vn 0.0001 -0.6354 -0.7722
vn 0.0000 -0.7731 -0.6343
vn -0.0000 -0.8819 -0.4714
vn -0.0000 -0.9569 -0.2903
vn -0.0000 -0.9952 -0.0980
vn -0.0000 -0.9952 0.0980
vn -0.0000 -0.9569 0.2903
vn -0.0000 -0.8819 0.4714
vn -0.0000 -0.7730 0.6344
vn -0.0000 -0.6344 0.7730
vn 0.0000 -0.4718 0.8817
vn 0.0002 -0.2918 0.9565
vn 0.0004 -0.0994 0.9950
vn 0.0005 0.0970 0.9953
vn 0.0001 0.2887 0.9574
vn -0.0006 0.4702 0.8826
vn -0.0011 0.6336 0.7737
vn -0.0012 0.7733 0.6340
vn -0.0010 0.8832 0.4689
vn -0.0005 0.9580 0.2869
vn -0.0001 0.9953 0.0964
vn -0.0000 0.9952 -0.0979
vn -0.0003 0.9582 -0.2860
vn -0.0017 0.8882 -0.4594
vn -0.0041 0.7851 -0.6194
vn -0.0067 0.6489 -0.7609
vn -0.0084 0.4791 -0.8777
vn 1.0000 -0.0021 0.0035
vn -0.0082 0.2854 -0.9584
vn -0.0063 0.0815 -0.9967
vn -1.0000 -0.0000 0.0002
usemtl Material.001
s off
f 65/134/35 66/135/35 68/136/35 67/137/35
f 67/137/36 68/136/36 70/138/36 69/139/36
f 69/139/37 70/138/37 72/140/37 71/141/37
f 71/141/38 72/140/38 74/142/38 73/143/38
f 73/143/39 74/142/39 76/144/39 75/145/39
f 75/145/40 76/144/40 78/146/40 77/147/40
f 77/148/41 78/149/41 80/150/41 79/151/41
f 79/151/42 80/150/42 82/152/42 81/153/42
f 81/153/43 82/152/43 84/154/43 83/155/43
f 83/155/44 84/154/44 86/156/44 85/157/44
f 85/157/45 86/156/45 88/158/45 87/159/45
f 87/159/46 88/158/46 90/160/46 89/161/46
f 89/161/47 90/160/47 92/162/47 91/163/47
f 91/164/48 92/165/48 94/166/48 93/167/48
f 93/167/49 94/166/49 96/168/49 95/169/49
f 95/169/50 96/168/50 98/170/50 97/171/50
f 97/171/51 98/170/51 100/172/51 99/173/51
f 99/173/52 100/172/52 102/174/52 101/175/52
f 101/175/53 102/174/53 104/176/53 103/177/53
f 103/177/54 104/176/54 106/178/54 105/179/54
f 105/179/55 106/178/55 108/180/55 107/181/55
f 107/182/56 108/183/56 110/184/56 109/185/56
f 109/185/57 110/184/57 112/186/57 111/187/57
f 111/187/58 112/186/58 114/188/58 113/189/58
f 113/189/59 114/188/59 116/190/59 115/191/59
f 115/191/60 116/190/60 118/192/60 117/193/60
f 117/193/61 118/192/61 120/194/61 119/195/61
f 119/195/62 120/194/62 122/196/62 121/197/62
f 121/197/63 122/196/63 124/198/63 123/199/63
f 123/199/64 124/198/64 126/200/64 125/201/64
f 68/202/65 66/203/65 128/204/65 126/205/65 124/206/65 122/207/65 120/208/65 118/209/65 116/210/65 114/211/65 112/212/65 110/213/65 108/214/65 106/215/65 104/216/65 102/217/65 100/218/65 98/219/65 96/220/65 94/221/65 92/222/65 90/223/65 88/224/65 86/225/65 84/226/65 82/227/65 80/228/65 78/229/65 76/230/65 74/231/65 72/232/65 70/233/65
f 125/234/66 126/200/66 128/235/66 127/236/66
f 127/236/67 128/235/67 66/135/67 65/134/67
f 65/237/68 67/238/68 69/239/68 71/240/68 73/241/68 75/242/68 77/243/68 79/244/68 81/245/68 83/246/68 85/247/68 87/248/68 89/249/68 91/250/68 93/251/68 95/252/68 97/253/68 99/254/68 101/255/68 103/256/68 105/257/68 107/258/68 109/259/68 111/260/68 113/261/68 115/262/68 117/263/68 119/264/68 121/265/68 123/266/68 125/267/68 127/268/68
