# Blender 3.6.4
# www.blender.org
mtllib bootv1.mtl
o Cylinder
v 0.000000 1.059971 -2.411016
v 0.000000 3.059971 -2.411016
v 0.195090 1.059971 -2.391801
v 0.195090 3.059971 -2.391801
v 0.382683 1.059971 -2.334895
v 0.382683 3.059971 -2.334895
v 0.555570 1.059971 -2.242486
v 0.555570 3.059971 -2.242486
v 0.707107 1.059971 -2.118123
v 0.707107 3.059971 -2.118123
v 0.831470 1.059971 -1.966586
v 0.831470 3.059971 -1.966586
v 0.923880 1.059971 -1.793700
v 0.923880 3.059971 -1.793700
v 0.980785 1.059971 -1.606106
v 0.980785 3.059971 -1.606106
v 1.019728 1.059971 -1.411016
v 1.019728 3.059971 -1.411016
v 0.961057 1.059971 -0.482443
v 0.961057 3.059971 -0.798190
v 0.923880 1.059971 -0.394132
v 0.923880 3.059971 -0.610597
v 0.831470 1.059971 -0.312745
v 0.831470 3.059971 -0.437710
v 0.707107 1.059971 -0.241408
v 0.707107 3.059971 -0.286174
v 0.555570 1.059971 -0.182863
v 0.555570 3.059971 -0.161811
v 0.382683 1.059971 -0.139360
v 0.382683 3.059971 -0.069401
v 0.195090 1.059971 -0.112571
v 0.195090 3.059971 -0.012495
v 0.000000 1.059971 -0.103526
v 0.000000 3.059971 0.006719
v -0.195090 1.059971 -0.112571
v -0.195090 3.059971 -0.012495
v -0.382683 1.059971 -0.139360
v -0.382683 3.059971 -0.069401
v -0.555570 1.059971 -0.182863
v -0.555570 3.059971 -0.161811
v -0.707107 1.059971 -0.241408
v -0.707107 3.059971 -0.286174
v -0.831470 1.059971 -0.312745
v -0.831470 3.059971 -0.437710
v -0.923880 1.059971 -0.394132
v -0.923880 3.059971 -0.610597
v -0.980785 1.059971 -0.482443
v -0.980785 3.059971 -0.798190
v -1.000000 1.059971 -1.411016
v -1.000000 3.059971 -1.411016
v -0.980785 1.059971 -1.606106
v -0.980785 3.059971 -1.606106
v -0.923880 1.059971 -1.793700
v -0.923880 3.059971 -1.793700
v -0.831470 1.059971 -1.966586
v -0.831470 3.059971 -1.966586
v -0.707107 1.059971 -2.118123
v -0.707107 3.059971 -2.118123
v -0.555570 1.059971 -2.242486
v -0.555570 3.059971 -2.242486
v -0.382683 1.059971 -2.334895
v -0.382683 3.059971 -2.334895
v -0.195090 1.059971 -2.391801
v -0.195090 3.059971 -2.391801
v 0.980785 -0.263745 -1.606106
v 0.923879 -0.263745 -1.793700
v -0.000000 -0.263745 0.258237
v 0.195090 -0.263745 0.234108
v -0.980785 -0.263745 -1.606106
v -1.000000 -0.263745 -1.411016
v 0.555570 -0.263745 -2.242486
v 0.382683 -0.263745 -2.334895
v 0.707107 -0.263745 -0.109578
v 0.831470 -0.263745 -0.299877
v -0.831470 -0.263745 -0.299877
v -0.707107 -0.263745 -0.109578
v -0.382684 -0.263745 -2.334895
v -0.555570 -0.263745 -2.242486
v 1.019728 -0.263745 -1.411016
v -0.195090 -0.263745 0.234108
v -0.923880 -0.263745 -1.793700
v 0.707107 -0.263745 -2.118123
v 0.555570 -0.263745 0.046597
v -0.923880 -0.263745 -0.516988
v -0.195090 -0.263745 -2.391801
v 0.961057 -0.263745 -0.752568
v -0.382684 -0.263745 0.162645
v -0.831470 -0.263745 -1.966586
v 0.831469 -0.263745 -1.966586
v 0.382683 -0.263745 0.162645
v -0.980785 -0.263745 -0.752568
v 0.195090 -0.263745 -2.391801
v -0.000000 -0.263745 -2.411016
v 0.923879 -0.263745 -0.516988
v -0.555570 -0.263745 0.046597
v -0.707107 -0.263745 -2.118123
v 0.980785 -1.020907 -1.606106
v -0.000000 -1.020907 1.482103
v -0.980785 -1.020907 -1.606106
v 0.555570 -1.020907 -2.242486
v 0.707107 -1.020907 0.700776
v -0.831470 -1.020907 0.296535
v -0.382684 -1.020907 -2.334895
v 1.019728 -1.020907 -1.411016
v -0.195090 -1.020907 1.430845
v -0.923880 -1.020907 -1.793700
v 0.707107 -1.020907 -2.118123
v 0.555570 -1.020907 1.032529
v -0.923880 -1.020907 -0.164660
v -0.195090 -1.020907 -2.391801
v 0.961057 -1.020907 -0.665086
v -0.382684 -1.020907 1.279042
v -0.831470 -1.020907 -1.966586
v 0.831469 -1.020907 -1.966586
v 0.383152 -1.037435 1.320730
v -0.971835 -1.020907 -0.665086
v 0.195090 -1.020907 -2.391801
v 0.923879 -1.020907 -0.164660
v -0.555570 -1.020907 1.032529
v -0.707107 -1.020907 -2.118123
v 0.923879 -1.020907 -1.793700
v 0.195329 -1.037870 1.475952
v -1.008951 -1.020907 -1.411016
v 0.382683 -1.020907 -2.334895
v 0.831469 -1.020907 0.296535
v -0.707107 -1.020907 0.700776
v -0.555570 -1.020907 -2.242486
v -0.000000 -1.020907 -2.411016
v 0.137275 -1.245294 1.319869
v -0.000000 -1.241292 1.358186
v 0.192065 -1.255090 1.312682
v 0.780166 -1.333260 0.477582
v 0.707107 -1.308576 0.713932
v 0.831469 -1.340155 0.411561
v -0.831470 -1.340155 0.411561
v -0.755458 -1.315287 0.649676
v -0.707107 -1.308576 0.713932
v -0.056960 -1.241974 1.351654
v -0.195091 -1.245983 1.313268
v 0.650591 -1.303293 0.764517
v 0.555570 -1.281075 0.977262
v -0.923880 -1.373826 0.089156
v -0.871440 -1.348403 0.332587
v 0.961057 -1.407802 -0.236171
v 0.987326 -1.439062 -0.535494
v -0.251367 -1.248050 1.293481
v -0.382684 -1.259637 1.182534
v 0.497001 -1.277411 1.012346
v 0.380316 -1.269120 1.184801
v -0.971835 -1.407802 -0.236171
v -0.946837 -1.383386 -0.002383
v 0.942531 -1.398213 -0.144360
v 0.923879 -1.373826 0.089156
v -0.555570 -1.281075 0.977262
v -0.438001 -1.263170 1.148704
v 0.328548 -1.258111 1.197139
v 0.881829 -1.365451 0.169345
v -0.608660 -1.286174 0.928433
v -1.008515 -1.263116 -1.414033
v -1.008951 -1.263811 -1.411016
v 1.019126 -1.263116 -1.414033
v 1.019728 -1.263811 -1.411016
v 0.983340 -1.447263 -0.614020
v 0.990232 -1.447263 -0.614020
v 1.007242 -1.341469 -1.073636
v -1.004372 -1.308831 -1.215429
v -0.995651 -1.341469 -1.073636
v -0.981705 -1.447263 -0.614020
v -0.981841 -1.264968 -1.598795
v -1.008454 -1.264968 -1.414459
v 1.019041 -1.264968 -1.414459
v 0.982245 -1.264968 -1.598795
v 1.019462 -1.265468 -1.403818
v 1.019462 -1.264968 -1.403818
v 1.019542 -1.264968 -1.405987
v -1.008782 -1.265468 -1.403818
v -1.008782 -1.264968 -1.403818
v -1.008833 -1.264968 -1.405987
v 0.980785 -1.455511 -1.606106
v 0.923879 -1.455511 -1.793700
v -0.980785 -1.455511 -1.606106
v -0.981841 -1.455511 -1.598795
v 0.555570 -1.455511 -2.242486
v 0.382683 -1.455511 -2.334895
v -0.382684 -1.455511 -2.334895
v -0.555570 -1.455511 -2.242486
v 0.982245 -1.455511 -1.598795
v -0.923880 -1.455511 -1.793700
v 0.707107 -1.455511 -2.118123
v -0.195091 -1.455511 -2.391801
v -0.831470 -1.455511 -1.966586
v 0.831469 -1.455511 -1.966586
v 0.195090 -1.455511 -2.391801
v -0.000000 -1.455511 -2.411016
v -0.707107 -1.455511 -2.118123
vn 0.0980 -0.0000 -0.9952
vn 0.2903 -0.0000 -0.9569
vn 0.4714 -0.0000 -0.8819
vn 0.6344 -0.0000 -0.7730
vn 0.7730 -0.0000 -0.6344
vn 0.8819 -0.0000 -0.4714
vn 0.9569 -0.0000 -0.2903
vn 0.9807 -0.0000 -0.1958
vn 0.9971 0.0060 0.0759
vn 0.9650 0.0346 0.2601
vn 0.8079 0.0501 0.5872
vn 0.6670 0.0316 0.7444
vn 0.5167 0.0051 0.8562
vn 0.3657 -0.0212 0.9305
vn 0.2175 -0.0415 0.9752
vn 0.0721 -0.0524 0.9960
vn -0.0721 -0.0524 0.9960
vn -0.2175 -0.0415 0.9752
vn -0.3657 -0.0212 0.9305
vn -0.5167 0.0051 0.8562
vn -0.6670 0.0316 0.7444
vn -0.8079 0.0501 0.5872
vn -0.9232 0.0507 0.3808
vn -0.9997 0.0020 0.0249
vn -0.9952 -0.0000 -0.0980
vn -0.9569 -0.0000 -0.2903
vn -0.8819 -0.0000 -0.4714
vn -0.7730 -0.0000 -0.6344
vn -0.6344 -0.0000 -0.7730
vn -0.4714 -0.0000 -0.8819
vn -0.0000 1.0000 -0.0000
vn -0.2903 -0.0000 -0.9569
vn -0.0980 -0.0000 -0.9952
vn 0.0645 -0.5606 0.8256
vn -0.9897 -0.0000 -0.1429
vn 0.9425 0.0376 0.3320
vn -0.9146 0.1912 0.3562
vn -0.9557 0.0134 0.2940
vn -0.2079 -0.4568 0.8649
vn 0.8863 -0.0742 0.4571
vn -0.9650 0.1420 0.2203
vn 0.9969 0.0465 0.0635
vn -0.0000 0.9946 -0.1039
vn -0.5631 -0.3210 0.7615
vn 0.7909 -0.2589 0.5545
vn -0.9877 0.1116 0.1095
vn 0.9936 0.0714 0.0871
vn -0.7833 -0.1462 0.6042
vn 0.5038 -0.5134 0.6947
vn -0.9990 0.0129 0.0423
vn -0.9973 0.0550 0.0496
vn -0.9995 -0.0126 0.0274
vn 0.9690 0.1004 0.2256
vn -0.8920 0.0011 0.4521
vn -0.5745 0.1107 0.8110
vn 0.8500 -0.0219 0.5263
vn -0.9997 -0.0025 0.0242
vn 0.2465 0.2306 0.9413
vn -0.4122 0.1793 0.8933
vn 0.9741 -0.0332 0.2236
vn -0.9423 -0.0492 0.3311
vn 0.4122 0.1793 0.8933
vn -0.2465 0.2306 0.9413
vn 0.9972 -0.0075 0.0737
vn -0.8500 -0.0219 0.5263
vn 0.5745 0.1107 0.8110
vn -0.0819 0.2576 0.9628
vn -0.7242 0.0376 0.6885
vn 0.7242 0.0376 0.6885
vn 0.0819 0.2576 0.9628
vn -0.7201 0.5305 0.4473
vn 0.9520 0.1625 0.2594
vn -0.9992 0.0023 0.0401
vn 0.3102 0.7990 0.5152
vn -0.5225 0.6918 0.4983
vn 0.9945 0.0292 0.1005
vn -0.9894 0.0351 0.1410
vn 0.5398 0.6852 0.4891
vn -0.3099 0.7955 0.5208
vn 0.9965 0.0048 0.0833
vn -0.9520 0.1625 0.2594
vn 0.7201 0.5305 0.4473
vn -0.1019 0.8434 0.5276
vn -0.8684 0.3375 0.3633
vn 0.8684 0.3375 0.3633
vn -0.9927 0.0059 -0.1205
vn 0.0776 0.8470 0.5260
vn -0.0005 -0.9946 0.1033
vn -0.0000 -0.2243 0.9745
vn -0.0000 -0.9745 -0.2243
vn -0.0000 -0.0000 -1.0000
vn -0.0000 -0.0000 1.0000
vn -0.0000 -1.0000 -0.0000
vt 0.910529 0.244682
vt 0.910529 0.000000
vt 0.934512 0.000000
vt 0.934512 0.244682
vt 0.958011 0.000000
vt 0.958011 0.244682
vt 0.980124 0.000000
vt 0.980124 0.244682
vt 1.000000 0.000000
vt 1.000000 0.244682
vt 0.424242 0.244577
vt 0.424242 0.000000
vt 0.442848 0.000442
vt 0.442848 0.245019
vt 0.464048 0.000769
vt 0.464048 0.245347
vt 0.487028 0.000969
vt 0.487028 0.245547
vt 0.510916 0.001106
vt 0.510916 0.245683
vt 0.585858 0.000886
vt 0.624486 0.245459
vt 0.608788 0.000751
vt 0.635270 0.245325
vt 0.629890 0.000418
vt 0.645178 0.244993
vt 0.424242 0.799176
vt 0.424407 0.555234
vt 0.439421 0.554537
vt 0.439362 0.798844
vt 0.457795 0.553962
vt 0.457822 0.798570
vt 0.478822 0.553533
vt 0.478915 0.798363
vt 0.501696 0.553264
vt 0.501828 0.798232
vt 0.525537 0.553167
vt 0.525683 0.798181
vt 0.549428 0.553245
vt 0.549561 0.798213
vt 0.572453 0.553495
vt 0.572545 0.798326
vt 0.593725 0.553908
vt 0.593752 0.798515
vt 0.612427 0.554467
vt 0.612368 0.798775
vt 0.627841 0.555152
vt 0.627676 0.799094
vt 0.185766 0.244659
vt 0.200920 0.000108
vt 0.220390 0.000465
vt 0.194140 0.244978
vt 0.242217 0.000717
vt 0.203928 0.245190
vt 0.316221 0.001029
vt 0.316221 0.245631
vt 0.340190 0.001050
vt 0.340190 0.245653
vt 0.363859 0.000952
vt 0.363859 0.245554
vt 0.386320 0.000738
vt 0.386320 0.245340
vt 0.406709 0.000416
vt 0.406709 0.245019
vt 0.424242 -0.000000
vt 0.424242 0.244602
vt 0.844777 0.244682
vt 0.844777 0.000000
vt 0.864783 0.000000
vt 0.864783 0.244682
vt 0.011577 0.776143
vt 0.002340 0.754666
vt 0.000000 0.732110
vt -0.000000 0.659167
vt 0.007016 0.636627
vt 0.016132 0.615185
vt 0.029400 0.595896
vt 0.046309 0.579503
vt 0.066211 0.566635
vt 0.088339 0.557787
vt 0.111845 0.553299
vt 0.135824 0.553343
vt 0.159355 0.557918
vt 0.181534 0.566847
vt 0.201508 0.579789
vt 0.218510 0.596244
vt 0.231886 0.615582
vt 0.241123 0.637058
vt 0.245865 0.659848
vt 0.245931 0.683075
vt 0.236447 0.755097
vt 0.227331 0.776539
vt 0.214063 0.795828
vt 0.197154 0.812221
vt 0.177252 0.825089
vt 0.155124 0.833937
vt 0.131618 0.838425
vt 0.107639 0.838381
vt 0.084108 0.833806
vt 0.061929 0.824877
vt 0.041955 0.811936
vt 0.024953 0.795480
vt 0.886985 0.000000
vt 0.886985 0.244682
vt 0.464048 0.552961
vt 0.464048 0.499814
vt 0.487028 0.500015
vt 0.487028 0.553162
vt 0.903944 0.617171
vt 0.905092 0.623879
vt 0.877785 0.624147
vt 0.875978 0.600235
vt 0.903486 0.600421
vt 0.339286 0.529996
vt 0.316502 0.530002
vt 0.316449 0.529775
vt 0.316076 0.529860
vt 0.316076 0.500153
vt 0.340190 0.500146
vt 0.340190 0.553299
vt 0.339286 0.553299
vt 0.958011 0.552428
vt 0.958011 0.499258
vt 0.980124 0.499258
vt 0.980124 0.552428
vt 0.741839 0.537463
vt 0.733789 0.538490
vt 0.719717 0.499452
vt 0.769105 0.499001
vt 0.770715 0.534180
vt 0.063278 0.533528
vt 0.111881 0.498902
vt 0.097933 0.537899
vt 0.070288 0.534525
vt 0.064873 0.498352
vt 0.844777 0.552428
vt 0.844777 0.499258
vt 0.864783 0.499258
vt 0.864783 0.552428
vt 0.510916 0.500151
vt 0.510916 0.529855
vt 0.510547 0.529768
vt 0.510495 0.529994
vt 0.487924 0.529866
vt 0.487924 0.553167
vt 0.903685 0.593446
vt 0.876506 0.576306
vt 0.904559 0.576507
vt 0.363859 0.500048
vt 0.363859 0.553201
vt 1.000000 0.499258
vt 1.000000 0.552428
vt 0.776873 0.533331
vt 0.809611 0.498455
vt 0.802850 0.530271
vt 0.135534 0.542435
vt 0.106863 0.539063
vt 0.166313 0.499377
vt 0.886984 0.499258
vt 0.886984 0.552428
vt 0.511797 0.529995
vt 0.511532 0.529996
vt 0.602142 0.499929
vt 0.654615 0.547236
vt 0.608401 0.552147
vt 0.552185 0.539302
vt 0.511797 0.530057
vt 0.394595 0.553350
vt 0.394595 0.596987
vt 0.393543 0.562355
vt 0.393754 0.553299
vt 0.904986 0.569601
vt 0.877483 0.553167
vt 0.907108 0.553416
vt 0.386320 0.499834
vt 0.386320 0.552987
vt 0.424242 0.552192
vt 0.424242 0.499045
vt 0.442848 0.499487
vt 0.442848 0.552634
vt 0.807111 0.529613
vt 0.844777 0.499856
vt 0.828146 0.528180
vt 0.174209 0.546872
vt 0.146263 0.543713
vt 0.226221 0.499731
vt 0.910529 0.552428
vt 0.910529 0.499258
vt 0.934512 0.499258
vt 0.934512 0.552428
vt 0.665837 0.545995
vt 0.663344 0.499789
vt 0.694396 0.542943
vt 0.014910 0.526965
vt 0.011703 0.526349
vt 0.000000 0.497112
vt 0.027096 0.497747
vt 0.033798 0.529589
vt 0.406709 0.499513
vt 0.406709 0.552665
vt 0.905784 0.640433
vt 0.907108 0.646767
vt 0.878160 0.646926
vt 0.315206 0.530059
vt 0.292432 0.535272
vt 0.275379 0.539178
vt 0.315468 0.529999
vt 0.315206 0.529998
vt 0.219869 0.551884
vt 0.704184 0.541767
vt 0.038860 0.530396
vt 0.424242 0.499096
vt 0.424242 0.552249
vt 0.424242 0.406494
vt 0.406709 0.406911
vt 0.612194 0.960006
vt 0.593449 0.959301
vt 0.646752 0.406869
vt 0.620240 0.407202
vt 0.958011 0.406626
vt 0.934512 0.406626
vt 0.316221 0.407523
vt 0.236685 0.407193
vt 0.501370 0.958483
vt 0.478516 0.958818
vt 0.464048 0.407222
vt 0.442848 0.406895
vt 0.386320 0.407232
vt 0.572146 0.958781
vt 0.591439 0.407338
vt 0.910529 0.406626
vt 0.886984 0.406626
vt 0.209038 0.406920
vt 0.457519 0.959356
vt 0.424242 0.406453
vt 0.363859 0.407446
vt 0.549103 0.958464
vt 0.510916 0.407558
vt 0.864783 0.406626
vt 0.184206 0.406546
vt 0.439188 0.960075
vt 1.000000 0.406626
vt 0.980124 0.406626
vt 0.340190 0.407545
vt 0.525205 0.958364
vt 0.487028 0.407422
vt 0.844777 0.406626
vt 0.627659 0.960867
vt 0.653839 0.244548
vt 0.669967 0.406421
vt 0.146655 0.405551
vt 0.163141 0.406083
vt 0.291873 0.807392
vt 0.314786 0.815921
vt 0.314636 0.986678
vt 0.291738 0.968213
vt 0.385507 0.807647
vt 0.406718 0.793957
vt 0.406718 0.933878
vt 0.385439 0.963025
vt 0.270783 0.793587
vt 0.270783 0.933508
vt 0.362520 0.816051
vt 0.362411 0.980946
vt 0.688993 0.405878
vt 0.338641 0.818844
vt 0.338518 0.986954
vt 0.791006 0.871010
vt 0.774288 0.885077
vt 0.767584 0.885876
vt 0.750783 0.890504
vt 0.743816 0.889702
vt 0.726923 0.885018
vt 0.720042 0.882607
vt 0.703996 0.869116
vt 0.697234 0.865000
vt 0.682880 0.844167
vt 0.676393 0.838231
vt 0.664386 0.812175
vt 0.658481 0.804366
vt 0.649223 0.775448
vt 0.644346 0.765854
vt 0.637972 0.736294
vt 0.635179 0.725178
vt 0.632161 0.696793
vt 0.631018 0.650923
vt 0.872267 0.651260
vt 0.871898 0.660792
vt 0.868633 0.697124
vt 0.866350 0.708266
vt 0.864029 0.736610
vt 0.858870 0.746337
vt 0.852668 0.775732
vt 0.846380 0.783738
vt 0.837401 0.812417
vt 0.830479 0.818548
vt 0.818817 0.844357
vt 0.811646 0.848606
vt 0.797341 0.869590
vt 0.270722 0.801337
vt 0.270494 0.801348
vt 0.270394 0.553299
vt 0.270622 0.553306
vt 0.269398 0.553313
vt 0.270020 0.553299
vt 0.270394 0.553353
vt 0.270047 0.801416
vt 0.269674 0.801489
vt 0.269051 0.801465
vt 0.874426 0.594377
vt 0.871423 0.651259
vt 0.629391 0.594035
vt 0.628348 0.576484
vt 0.627841 0.553167
vt 0.875978 0.553513
vt 0.270783 0.800356
vt 0.270722 0.800356
vt 0.270722 0.553299
vt 0.270783 0.553299
vt 0.393543 0.793573
vt 0.370248 0.793573
vt 0.370151 0.553299
vt 0.393446 0.553299
vt 0.246277 0.553299
vt 0.268786 0.556586
vt 0.268451 0.796874
vt 0.245931 0.801344
vt 0.268786 0.801455
vt 0.269133 0.553318
vt 0.360920 0.626726
vt 0.367838 0.649686
vt 0.370151 0.673557
vt 0.367771 0.697421
vt 0.360789 0.720362
vt 0.349473 0.741497
vt 0.334258 0.760015
vt 0.315729 0.775204
vt 0.294598 0.786480
vt 0.271676 0.793409
vt 0.270783 0.793587
vt 0.271119 0.553299
vt 0.272011 0.553430
vt 0.294913 0.560423
vt 0.316013 0.571759
vt 0.334500 0.586999
vt 0.349663 0.605560
s 0
usemtl Material.001
f 1/1/1 2/2/1 4/3/1 3/4/1
f 3/4/2 4/3/2 6/5/2 5/6/2
f 5/6/3 6/5/3 8/7/3 7/8/3
f 7/8/4 8/7/4 10/9/4 9/10/4
f 9/11/5 10/12/5 12/13/5 11/14/5
f 11/14/6 12/13/6 14/15/6 13/16/6
f 13/16/7 14/15/7 16/17/7 15/18/7
f 15/18/8 16/17/8 18/19/8 17/20/8
f 17/20/9 18/19/9 20/21/9 19/22/9
f 19/22/10 20/21/10 22/23/10 21/24/10
f 21/24/11 22/23/11 24/25/11 23/26/11
f 23/27/12 24/28/12 26/29/12 25/30/12
f 25/30/13 26/29/13 28/31/13 27/32/13
f 27/32/14 28/31/14 30/33/14 29/34/14
f 29/34/15 30/33/15 32/35/15 31/36/15
f 31/36/16 32/35/16 34/37/16 33/38/16
f 33/38/17 34/37/17 36/39/17 35/40/17
f 35/40/18 36/39/18 38/41/18 37/42/18
f 37/42/19 38/41/19 40/43/19 39/44/19
f 39/44/20 40/43/20 42/45/20 41/46/20
f 41/46/21 42/45/21 44/47/21 43/48/21
f 43/49/22 44/50/22 46/51/22 45/52/22
f 45/52/23 46/51/23 48/53/23 47/54/23
f 47/54/24 48/53/24 50/55/24 49/56/24
f 49/56/25 50/55/25 52/57/25 51/58/25
f 51/58/26 52/57/26 54/59/26 53/60/26
f 53/60/27 54/59/27 56/61/27 55/62/27
f 55/62/28 56/61/28 58/63/28 57/64/28
f 57/64/29 58/63/29 60/65/29 59/66/29
f 59/67/30 60/68/30 62/69/30 61/70/30
f 24/71/31 22/72/31 20/73/31 18/74/31 16/75/31 14/76/31 12/77/31 10/78/31 8/79/31 6/80/31 4/81/31 2/82/31 64/83/31 62/84/31 60/85/31 58/86/31 56/87/31 54/88/31 52/89/31 50/90/31 48/91/31 46/92/31 44/93/31 42/94/31 40/95/31 38/96/31 36/97/31 34/98/31 32/99/31 30/100/31 28/101/31 26/102/31
f 61/70/32 62/69/32 64/103/32 63/104/32
f 63/104/33 64/103/33 2/2/33 1/1/33
f 180/105/7 121/106/7 97/107/7 179/108/7
f 129/109/34 131/110/34 122/111/34 98/112/34 130/113/34
f 169/114/35 170/115/35 159/116/35 160/117/35 123/118/35 99/119/35 181/120/35 182/121/35
f 184/122/3 124/123/3 100/124/3 183/125/3
f 132/126/36 134/127/36 125/128/36 101/129/36 133/130/36
f 137/131/37 102/132/37 135/133/37 136/134/37
f 137/131/38 126/135/38 102/132/38
f 186/136/30 127/137/30 103/138/30 185/139/30
f 179/108/8 97/107/8 104/140/8 162/141/8 161/142/8 171/143/8 172/144/8 187/145/8
f 138/146/39 130/113/39 98/112/39 105/147/39 139/148/39
f 181/120/26 99/119/26 106/149/26 188/150/26
f 183/125/4 100/124/4 107/151/4 189/152/4
f 140/153/40 133/130/40 101/129/40 108/154/40 141/155/40
f 142/156/41 143/157/41 135/133/41 102/132/41 109/158/41
f 185/139/32 103/138/32 110/159/32 190/160/32
f 174/161/42 175/162/42 162/141/42 104/140/42 111/163/42 144/164/42 163/165/42 165/166/42 173/167/42
f 163/168/43 144/169/43 145/170/43 164/171/43
f 146/172/44 139/148/44 105/147/44 112/173/44 147/174/44
f 188/150/27 106/149/27 113/175/27 191/176/27
f 189/177/5 107/178/5 114/179/5 192/180/5
f 148/181/45 141/155/45 108/154/45 115/182/45 149/183/45
f 150/184/46 151/185/46 142/156/46 109/158/46 116/186/46
f 194/187/1 128/188/1 117/189/1 193/190/1
f 190/160/33 110/159/33 128/188/33 194/187/33
f 152/191/47 144/164/47 111/163/47 118/192/47 153/193/47
f 155/194/48 147/195/48 112/196/48 119/197/48 154/198/48
f 113/175/28 120/199/28 195/200/28 191/176/28
f 192/180/6 114/179/6 121/106/6 180/105/6
f 156/201/49 149/202/49 115/203/49 122/111/49 131/110/49
f 176/204/50 166/205/50 167/206/50 123/118/50 160/117/50 178/207/50 177/208/50
f 150/184/51 116/186/51 123/118/51
f 167/206/52 168/209/52 150/184/52 123/118/52
f 193/190/2 117/189/2 124/123/2 184/122/2
f 157/210/53 153/193/53 118/192/53 125/128/53 134/127/53
f 158/211/54 154/198/54 119/197/54 126/135/54 137/131/54
f 120/199/29 127/212/29 186/213/29 195/200/29
f 57/64/29 59/66/29 78/214/29 96/215/29
f 39/44/55 41/46/55 76/216/55 95/217/55
f 21/24/56 23/26/56 74/218/56 94/219/56
f 3/4/2 5/6/2 72/220/2 92/221/2
f 47/54/57 49/56/57 70/222/57 91/223/57
f 29/34/58 31/36/58 68/224/58 90/225/58
f 11/14/6 13/16/6 66/226/6 89/227/6
f 55/62/28 57/64/28 96/215/28 88/228/28
f 37/42/59 39/44/59 95/217/59 87/229/59
f 19/22/60 21/24/60 94/219/60 86/230/60
f 63/104/33 1/1/33 93/231/33 85/232/33
f 1/1/1 3/4/1 92/221/1 93/231/1
f 45/52/61 47/54/61 91/223/61 84/233/61
f 27/32/62 29/34/62 90/225/62 83/234/62
f 9/11/5 11/14/5 89/227/5 82/235/5
f 53/60/27 55/62/27 88/228/27 81/236/27
f 35/40/63 37/42/63 87/229/63 80/237/63
f 17/20/64 19/22/64 86/230/64 79/238/64
f 61/70/32 63/104/32 85/232/32 77/239/32
f 43/49/65 45/52/65 84/233/65 75/240/65
f 25/30/66 27/32/66 83/234/66 73/241/66
f 7/8/4 9/10/4 82/242/4 71/243/4
f 51/58/26 53/60/26 81/236/26 69/244/26
f 33/38/67 35/40/67 80/237/67 67/245/67
f 15/18/8 17/20/8 79/238/8 65/246/8
f 59/67/30 61/70/30 77/239/30 78/247/30
f 41/46/68 43/48/68 75/248/68 76/216/68
f 23/26/69 25/249/69 73/250/69 74/218/69
f 5/6/3 7/8/3 71/243/3 72/220/3
f 49/56/25 51/58/25 69/244/25 70/222/25
f 31/36/70 33/38/70 67/245/70 68/224/70
f 13/16/7 15/18/7 65/246/7 66/226/7
f 96/215/29 78/214/29 127/212/29 120/199/29
f 95/251/71 76/252/71 126/135/71 119/197/71
f 94/219/72 74/218/72 125/128/72 118/192/72
f 92/221/2 72/220/2 124/123/2 117/189/2
f 91/223/73 70/222/73 123/118/73 116/186/73
f 90/253/74 68/254/74 122/255/74 115/256/74
f 89/227/6 66/226/6 121/106/6 114/179/6
f 88/228/28 96/215/28 120/199/28 113/175/28
f 87/257/75 95/258/75 119/259/75 112/260/75
f 86/230/76 94/219/76 118/192/76 111/163/76
f 85/232/33 93/231/33 128/188/33 110/159/33
f 93/231/1 92/221/1 117/189/1 128/188/1
f 84/233/77 91/223/77 116/186/77 109/158/77
f 83/261/78 90/253/78 115/256/78 108/262/78
f 82/235/5 89/227/5 114/179/5 107/178/5
f 81/236/27 88/228/27 113/175/27 106/149/27
f 80/263/79 87/257/79 112/260/79 105/264/79
f 79/238/80 86/230/80 111/163/80 104/140/80
f 77/239/32 85/232/32 110/159/32 103/138/32
f 75/240/81 84/233/81 109/158/81 102/132/81
f 73/250/82 83/265/82 108/154/82 101/129/82
f 71/243/4 82/242/4 107/151/4 100/124/4
f 69/244/26 81/236/26 106/149/26 99/119/26
f 67/266/83 80/263/83 105/264/83 98/267/83
f 65/246/8 79/238/8 104/140/8 97/107/8
f 78/247/30 77/239/30 103/138/30 127/137/30
f 76/252/84 75/240/84 102/132/84 126/135/84
f 74/218/85 73/250/85 101/129/85 125/128/85
f 72/220/3 71/243/3 100/124/3 124/123/3
f 70/222/86 69/244/86 99/119/86 123/118/86
f 68/254/87 67/266/87 98/267/87 122/255/87
f 66/226/7 65/246/7 97/107/7 121/106/7
f 156/268/88 131/269/88 129/270/88 130/271/88 138/272/88 139/273/88 146/274/88 147/275/88 155/276/88 154/277/88 158/278/88 137/279/88 136/280/88 135/281/88 143/282/88 142/283/88 151/284/88 150/285/88 168/286/88 164/287/88 145/288/88 144/289/88 152/290/88 153/291/88 157/292/88 134/293/88 132/294/88 133/295/88 140/296/88 141/297/88 148/298/88 149/299/88
f 171/300/89 161/301/89 159/302/89 170/303/89
f 178/304/90 160/305/90 159/306/90 161/307/90 162/308/90 175/309/90
f 165/310/90 163/311/90 164/287/90 168/286/90 167/312/90 166/313/90 176/314/90 173/315/90
f 176/316/91 177/317/91 174/318/91 173/319/91
f 187/320/92 172/321/92 169/322/92 182/323/92
f 170/324/93 169/325/93 172/326/93 171/327/93
f 174/328/93 177/329/93 178/304/93 175/309/93
f 185/330/93 190/331/93 194/332/93 193/333/93 184/334/93 183/335/93 189/336/93 192/337/93 180/338/93 179/339/93 187/340/93 182/341/93 181/342/93 188/343/93 191/344/93 195/345/93 186/346/93
