# Blender 3.6.4
# www.blender.org
mtllib Dartv1.mtl
o Cone
v 0.330891 -0.000000 -0.007516
v 0.330891 -0.001473 -0.007371
v 0.330891 -0.002890 -0.006943
v 0.330891 -0.004195 -0.006249
v 0.330891 -0.005339 -0.005314
v 0.330891 -0.006278 -0.004175
v 0.330891 -0.006976 -0.002876
v 0.330891 -0.007406 -0.001466
v 0.330891 -0.007551 -0.000000
v 0.330891 -0.007406 0.001466
v 0.330891 -0.006976 0.002876
v 0.330891 -0.006278 0.004175
v 0.330891 -0.005339 0.005314
v 0.330891 -0.004195 0.006249
v 0.330891 -0.002890 0.006943
v 0.330891 -0.001473 0.007371
v 0.330891 -0.000000 0.007516
v 0.330891 0.001473 0.007371
v 0.330891 0.002890 0.006943
v 0.330891 0.004195 0.006249
v 0.330891 0.005339 0.005314
v 0.330891 0.006278 0.004175
v 0.330891 0.006976 0.002876
v 0.330891 0.007406 0.001466
v 0.330891 0.007551 -0.000000
v 0.330891 0.007406 -0.001466
v 0.330891 0.006976 -0.002876
v 0.330891 0.006278 -0.004175
v 0.330891 0.005339 -0.005314
v 0.330891 0.004195 -0.006249
v 0.330891 0.002890 -0.006943
v 0.330891 0.001473 -0.007371
v 0.445692 -0.000000 0.000000
vn 0.0650 -0.0974 -0.9931
vn 0.0650 -0.2884 -0.9553
vn 0.0651 -0.4687 -0.8810
vn 0.0651 -0.6313 -0.7728
vn 0.0652 -0.7699 -0.6348
vn 0.0652 -0.8791 -0.4721
vn 0.0653 -0.9545 -0.2909
vn 0.0653 -0.9930 -0.0983
vn 0.0653 -0.9930 0.0983
vn 0.0653 -0.9545 0.2909
vn 0.0652 -0.8791 0.4721
vn 0.0652 -0.7699 0.6348
vn 0.0651 -0.6313 0.7728
vn 0.0651 -0.4687 0.8810
vn 0.0650 -0.2884 0.9553
vn 0.0650 -0.0974 0.9931
vn 0.0650 0.0974 0.9931
vn 0.0650 0.2884 0.9553
vn 0.0651 0.4687 0.8810
vn 0.0651 0.6313 0.7728
vn 0.0652 0.7699 0.6348
vn 0.0652 0.8791 0.4721
vn 0.0653 0.9545 0.2909
vn 0.0653 0.9930 0.0983
vn 0.0653 0.9930 -0.0983
vn 0.0653 0.9545 -0.2909
vn 0.0652 0.8791 -0.4721
vn 0.0652 0.7699 -0.6348
vn 0.0651 0.6313 -0.7728
vn 0.0651 0.4687 -0.8810
vn -1.0000 -0.0000 -0.0000
vn 0.0650 0.2884 -0.9553
vn 0.0650 0.0974 -0.9931
vt 0.131178 0.527362
vt 0.141162 0.288048
vt 0.132160 0.527410
vt 0.133316 0.527456
vt 0.134601 0.527496
vt 0.135965 0.527530
vt 0.137356 0.527556
vt 0.138720 0.527573
vt 0.140005 0.527581
vt 0.141162 0.527579
vt 0.120210 0.527570
vt 0.120210 0.288048
vt 0.121194 0.527577
vt 0.122351 0.527574
vt 0.123636 0.527561
vt 0.125000 0.527538
vt 0.126391 0.527507
vt 0.127755 0.527467
vt 0.129039 0.527421
vt 0.130195 0.527371
vt 0.131178 0.527318
vt 0.151146 0.527579
vt 0.151146 0.288048
vt 0.152303 0.527581
vt 0.153588 0.527573
vt 0.154953 0.527556
vt 0.156343 0.527530
vt 0.157707 0.527496
vt 0.158992 0.527456
vt 0.160148 0.527410
vt 0.141162 0.527362
vt 0.151146 0.288048
vt 0.142145 0.527410
vt 0.143301 0.527456
vt 0.144585 0.527496
vt 0.145949 0.527530
vt 0.147340 0.527556
vt 0.148704 0.527573
vt 0.503564 0.256994
vt 0.502200 0.257266
vt 0.500809 0.257266
vt 0.499444 0.256994
vt 0.498159 0.256462
vt 0.497003 0.255689
vt 0.496019 0.254705
vt 0.495246 0.253549
vt 0.494714 0.252264
vt 0.494443 0.250899
vt 0.494443 0.249508
vt 0.494714 0.248144
vt 0.495246 0.246859
vt 0.496019 0.245702
vt 0.497003 0.244719
vt 0.498159 0.243946
vt 0.499445 0.243414
vt 0.500809 0.243142
vt 0.502200 0.243142
vt 0.503564 0.243414
vt 0.504849 0.243946
vt 0.506006 0.244719
vt 0.506989 0.245702
vt 0.507762 0.246859
vt 0.508295 0.248144
vt 0.508566 0.249508
vt 0.508566 0.250899
vt 0.508295 0.252264
vt 0.507762 0.253549
vt 0.506989 0.254706
vt 0.506006 0.255689
vt 0.504849 0.256462
vt 0.149989 0.527581
vt 0.151146 0.527579
s 0
usemtl Material.001
f 1/1/1 33/2/1 2/3/1
f 2/3/2 33/2/2 3/4/2
f 3/4/3 33/2/3 4/5/3
f 4/5/4 33/2/4 5/6/4
f 5/6/5 33/2/5 6/7/5
f 6/7/6 33/2/6 7/8/6
f 7/8/7 33/2/7 8/9/7
f 8/9/8 33/2/8 9/10/8
f 9/11/9 33/12/9 10/13/9
f 10/13/10 33/12/10 11/14/10
f 11/14/11 33/12/11 12/15/11
f 12/15/12 33/12/12 13/16/12
f 13/16/13 33/12/13 14/17/13
f 14/17/14 33/12/14 15/18/14
f 15/18/15 33/12/15 16/19/15
f 16/19/16 33/12/16 17/20/16
f 17/20/17 33/12/17 18/21/17
f 18/22/18 33/23/18 19/24/18
f 19/24/19 33/23/19 20/25/19
f 20/25/20 33/23/20 21/26/20
f 21/26/21 33/23/21 22/27/21
f 22/27/22 33/23/22 23/28/22
f 23/28/23 33/23/23 24/29/23
f 24/29/24 33/23/24 25/30/24
f 25/31/25 33/32/25 26/33/25
f 26/33/26 33/32/26 27/34/26
f 27/34/27 33/32/27 28/35/27
f 28/35/28 33/32/28 29/36/28
f 29/36/29 33/32/29 30/37/29
f 30/37/30 33/32/30 31/38/30
f 1/39/31 2/40/31 3/41/31 4/42/31 5/43/31 6/44/31 7/45/31 8/46/31 9/47/31 10/48/31 11/49/31 12/50/31 13/51/31 14/52/31 15/53/31 16/54/31 17/55/31 18/56/31 19/57/31 20/58/31 21/59/31 22/60/31 23/61/31 24/62/31 25/63/31 26/64/31 27/65/31 28/66/31 29/67/31 30/68/31 31/69/31 32/70/31
f 31/38/32 33/32/32 32/71/32
f 32/71/33 33/32/33 1/72/33
o Sphere
v 0.173410 0.027275 -0.006785
v 0.222204 0.023202 -0.012906
v 0.252324 0.016857 -0.017763
v 0.270551 0.008862 -0.020882
v 0.276492 0.000000 -0.021957
v 0.268968 -0.008862 -0.020882
v 0.248745 -0.016857 -0.017763
v 0.215838 -0.023202 -0.012906
v 0.163571 -0.027275 -0.006785
v 0.208759 0.027275 -0.002592
v 0.271204 0.023202 -0.004930
v 0.320565 0.016857 -0.006785
v 0.354186 0.008862 -0.007976
v 0.365454 0.000000 -0.008387
v 0.353548 -0.008862 -0.007976
v 0.318643 -0.016857 -0.006785
v 0.266649 -0.023202 -0.004930
v 0.200088 -0.027275 -0.002592
v 0.208451 0.027275 0.002592
v 0.270847 0.023202 0.004930
v 0.320282 0.016857 0.006785
v 0.353981 0.008862 0.007976
v 0.365280 0.000000 0.008387
v 0.353327 -0.008862 0.007976
v 0.318266 -0.016857 0.006785
v 0.266021 -0.023202 0.004930
v 0.199525 -0.027275 0.002592
v 0.172461 0.027275 0.006785
v 0.220796 0.023202 0.012906
v 0.250671 0.016857 0.017763
v 0.268748 0.008862 0.020882
v 0.274589 0.000000 0.021957
v 0.266912 -0.008862 0.020882
v 0.246508 -0.016857 0.017763
v 0.213552 -0.023202 0.012906
v 0.161852 -0.027275 0.006785
v 0.063228 0.025907 0.007966
v 0.061226 0.022030 0.015147
v 0.059292 0.016006 0.020848
v 0.057622 0.008418 0.024519
v 0.056372 0.000000 0.025800
v 0.053642 -0.008418 0.024519
v 0.051702 -0.016006 0.020848
v 0.050730 -0.022030 0.015147
v 0.051138 -0.025907 0.007966
v 0.065078 0.027259 0.000000
v -0.094913 0.022556 0.005611
v -0.217702 0.016128 0.008971
v -0.299663 0.010133 0.010678
v -0.345592 0.004901 0.011548
v -0.359390 0.000000 0.011867
v -0.346914 -0.004901 0.011548
v -0.302564 -0.010133 0.010678
v -0.222652 -0.016128 0.008971
v -0.104499 -0.022556 0.005611
v -0.183420 0.020118 0.001912
v -0.343532 0.012841 0.002728
v -0.429479 0.008089 0.003256
v -0.467275 0.004152 0.003737
v -0.468217 -0.004152 0.003737
v -0.468217 -0.004152 0.003737
v -0.431420 -0.008089 0.003256
v -0.347010 -0.012841 0.002728
v -0.189484 -0.020118 0.001912
v 0.052865 -0.027259 0.000000
v -0.183052 0.020118 -0.001912
v -0.343069 0.012841 -0.002728
v -0.428992 0.008089 -0.003256
v -0.466748 0.004152 -0.003737
v -0.467692 -0.004152 -0.003737
v -0.467692 -0.004152 -0.003737
v -0.430937 -0.008089 -0.003256
v -0.346556 -0.012841 -0.002728
v -0.189135 -0.020118 -0.001912
v -0.094206 0.022556 -0.005611
v -0.215917 0.016128 -0.008971
v -0.297738 0.010133 -0.010678
v -0.343645 0.004901 -0.011548
v -0.357432 0.000000 -0.011867
v -0.344980 -0.004901 -0.011548
v -0.300676 -0.010133 -0.010678
v -0.220974 -0.016128 -0.008971
v -0.103863 -0.022556 -0.005611
v 0.064641 0.025907 -0.007966
v 0.064233 0.022030 -0.015147
v 0.063899 0.016006 -0.020848
v 0.063323 0.008418 -0.024519
v 0.062585 0.000000 -0.025800
v 0.059755 -0.008418 -0.024519
v 0.057142 -0.016006 -0.020848
v 0.055003 -0.022030 -0.015147
v 0.053536 -0.025907 -0.007966
vn 0.0075 -0.6615 -0.7499
vn 0.0174 0.1402 -0.9900
vn -0.0015 0.8559 -0.5171
vn -0.0015 -0.8557 -0.5175
vn 0.0173 -0.1452 -0.9892
vn 0.0077 0.6599 -0.7513
vn -0.0105 -0.9857 -0.1682
vn 0.0139 -0.4164 -0.9091
vn 0.0141 0.4128 -0.9107
vn -0.0106 0.9859 -0.1668
vn 0.1478 0.2242 -0.9633
vn 0.0455 0.9480 -0.3151
vn 0.0431 -0.9500 -0.3094
vn 0.1464 -0.2408 -0.9595
vn 0.0876 0.8357 -0.5421
vn -0.0001 -1.0000 0.0008
vn 0.1197 -0.6214 -0.7743
vn 0.1231 0.6101 -0.7827
vn -0.0001 1.0000 0.0008
vn 0.0837 -0.8420 -0.5330
vn -0.0001 1.0000 -0.0000
vn 0.1208 -0.9927 0.0052
vn 0.6177 0.7864 0.0071
vn 0.0651 0.9979 0.0029
vn 0.0611 -0.9981 0.0048
vn 0.5963 -0.8027 0.0072
vn 0.1274 0.9918 0.0035
vn -0.0001 -1.0000 -0.0000
vn 0.2228 -0.9749 0.0045
vn 0.2311 0.9729 0.0038
vn 0.1175 -0.6172 0.7780
vn 0.1214 0.6051 0.7868
vn -0.0001 1.0000 -0.0009
vn 0.0823 -0.8380 0.5394
vn 0.1451 0.2212 0.9644
vn 0.0452 0.9464 0.3197
vn 0.0427 -0.9477 0.3162
vn 0.1435 -0.2394 0.9602
vn 0.0868 0.8321 0.5478
vn -0.0001 -1.0000 -0.0009
vn 0.0076 0.6592 0.7520
vn -0.0104 -0.9862 0.1651
vn 0.0137 -0.4158 0.9094
vn 0.0139 0.4116 0.9112
vn -0.0106 0.9862 0.1649
vn 0.0074 -0.6610 0.7504
vn 0.0171 0.1395 0.9901
vn -0.0015 0.8560 0.5169
vn -0.0015 -0.8558 0.5172
vn 0.0170 -0.1451 0.9893
vn -0.0332 -0.1431 0.9891
vn -0.0314 0.6739 0.7381
vn -0.0237 -0.9865 0.1623
vn -0.0330 -0.4289 0.9028
vn -0.0327 0.4392 0.8978
vn -0.0233 0.9865 0.1620
vn -0.0319 -0.6679 0.7436
vn -0.0331 0.1560 0.9872
vn -0.0281 0.8607 0.5083
vn -0.0287 -0.8569 0.5147
vn -0.0407 0.9415 0.3347
vn -0.0417 -0.9409 0.3360
vn -0.0640 -0.2261 0.9720
vn -0.0465 0.8390 0.5422
vn -0.0293 -0.9995 0.0151
vn -0.0551 -0.6049 0.7944
vn -0.0545 0.6138 0.7876
vn -0.0285 0.9993 0.0241
vn -0.0472 -0.8351 0.5480
vn -0.0708 0.1030 0.9922
vn -0.0562 -0.9984 -0.0044
vn -0.9912 0.1126 -0.0698
vn -0.0454 0.9990 -0.0041
vn -0.0462 -0.9989 -0.0040
vn -0.0000 1.0000 -0.0000
vn -0.0552 0.9985 -0.0044
vn -0.0295 -0.9996 -0.0027
vn -0.1064 -0.9943 -0.0077
vn -0.1037 0.9946 -0.0075
vn -0.0287 0.9996 -0.0028
vn -0.0541 0.6097 -0.7908
vn -0.0285 0.9992 -0.0271
vn -0.0469 -0.8314 -0.5538
vn -0.0699 0.1020 -0.9923
vn -0.0406 0.9389 -0.3417
vn -0.0416 -0.9385 -0.3427
vn -0.0633 -0.2240 -0.9725
vn -0.0462 0.8353 -0.5479
vn -0.0293 -0.9994 -0.0179
vn -0.0547 -0.6007 -0.7976
vn -0.0327 -0.4264 -0.9040
vn -0.0324 0.4360 -0.8994
vn -0.0233 0.9858 -0.1660
vn -0.0316 -0.6643 -0.7468
vn -0.0328 0.1544 -0.9875
vn -0.0281 0.8577 -0.5135
vn -0.0285 -0.8528 -0.5214
vn -0.0329 -0.1426 -0.9892
vn -0.0312 0.6703 -0.7415
vn -0.0235 -0.9853 -0.1692
vt 0.468077 0.217237
vt 0.494443 0.218203
vt 0.460009 0.275627
vt 0.440407 0.266556
vt 0.101494 0.064597
vt 0.066904 0.056833
vt 0.069997 -0.000000
vt 0.106336 0.006646
vt 0.321416 0.064745
vt 0.290844 0.064729
vt 0.279499 0.027082
vt 0.302514 0.011374
vt 0.436496 0.211477
vt 0.418763 0.246485
vt 0.132167 0.077899
vt 0.138809 0.021513
vt 0.031976 0.054674
vt 0.000090 0.058329
vt -0.000000 0.013000
vt 0.033380 0.002043
vt 0.402757 0.201469
vt 0.156065 0.094718
vt 0.164240 0.043136
vt 0.256428 0.068188
vt 0.164240 0.845363
vt 0.170160 0.811459
vt 0.233217 0.811026
vt 0.230648 0.844806
vt 0.259179 0.017858
vt 0.264945 0.000000
vt 0.210303 0.974082
vt 0.190846 0.948974
vt 0.229726 0.948793
vt 0.231759 0.973011
vt 0.165983 0.881923
vt 0.229138 0.881396
vt 0.183224 0.783470
vt 0.202009 0.764275
vt 0.240702 0.764275
vt 0.236562 0.783391
vt 0.397264 0.251966
vt 0.175221 0.917557
vt 0.228732 0.917313
vt 0.236670 0.021346
vt 0.285881 0.925653
vt 0.271211 0.954888
vt 0.300424 0.820806
vt 0.301319 0.855085
vt 0.222116 0.006557
vt 0.253545 0.976238
vt 0.296345 0.891178
vt 0.282215 0.770343
vt 0.293721 0.791722
vt 0.375743 0.244244
vt 0.341779 0.907680
vt 0.324711 0.939516
vt 0.332774 0.805371
vt 0.345981 0.837191
vt 0.220578 0.036262
vt 0.299388 0.964994
vt 0.349109 0.872420
vt 0.190417 0.028701
vt 0.360590 0.256519
vt 0.333178 0.228266
vt 0.362447 0.226190
vt 0.021155 0.572359
vt 0.000000 0.552459
vt 0.000000 0.527481
vt 0.021209 0.537733
vt 0.166452 0.029236
vt 0.189934 0.085539
vt 0.164240 0.097011
vt 0.370420 0.187530
vt 0.534035 0.761399
vt 0.498641 0.764142
vt 0.500352 0.686332
vt 0.533904 0.690457
vt 0.425510 0.761386
vt 0.394913 0.756390
vt 0.401707 0.686970
vt 0.430824 0.684494
vt 0.221686 0.075608
vt 0.564012 0.755547
vt 0.562207 0.696472
vt 0.461245 0.764142
vt 0.464795 0.684503
vt 0.342404 0.171794
vt 0.484381 0.552155
vt 0.504445 0.557737
vt 0.232297 0.182844
vt 0.228711 0.218753
vt 0.399024 0.137129
vt 0.525352 0.575006
vt 0.441710 0.572134
vt 0.463996 0.556320
vt 0.240720 0.131529
vt 0.321416 0.155794
vt 0.405721 0.050402
vt 0.401149 0.086209
vt 0.261628 0.161934
vt 0.266325 0.225219
vt 0.442454 0.051473
vt 0.424982 0.112311
vt 0.509332 0.522396
vt 0.268314 0.260243
vt 0.409489 0.028109
vt 0.455781 0.000000
vt 0.451846 0.017609
vt 0.226761 0.241025
vt 0.267791 0.277984
vt 0.475068 0.521133
vt 0.478908 0.027238
vt 0.465125 0.059558
vt 0.047441 0.288048
vt 0.015212 0.277908
vt 0.026366 0.263454
vt 0.058595 0.273595
vt 0.278222 0.159314
vt 0.290012 0.221500
vt 0.440864 0.117986
vt 0.120210 0.288048
vt 0.296586 0.255827
vt 0.486844 0.011043
vt 0.300242 0.272926
vt 0.012212 0.248177
vt 0.021800 0.191489
vt 0.041165 0.210049
vt 0.289451 0.123964
vt 0.494443 0.082082
vt 0.475675 0.112853
vt 0.060007 0.219462
vt 0.310170 0.170527
vt 0.445683 0.153663
vt 0.079195 0.222085
vt 0.321416 0.204160
vt 0.074996 0.267966
vt 0.100426 0.216432
vt -0.000000 0.162664
s 0
f 124/73/34 123/74/34 40/75/34 41/76/34
f 121/77/35 120/78/35 37/79/35 38/80/35
f 118/81/36 117/82/36 34/83/36 35/84/36
f 125/85/37 124/73/37 41/76/37 42/86/37
f 122/87/38 121/77/38 38/80/38 39/88/38
f 119/89/39 118/90/39 35/91/39 36/92/39
f 98/93/40 125/85/40 42/86/40
f 123/94/41 122/87/41 39/88/41 40/95/41
f 120/78/42 119/89/42 36/92/42 37/79/42
f 117/82/43 79/96/43 34/83/43
f 38/97/44 37/98/44 46/99/44 47/100/44
f 35/84/45 34/83/45 43/101/45 44/102/45
f 42/103/46 41/104/46 50/105/46 51/106/46
f 39/107/47 38/97/47 47/100/47 48/108/47
f 36/109/48 35/110/48 44/111/48 45/112/48
f 98/93/49 42/86/49 51/113/49
f 40/114/50 39/107/50 48/108/50 49/115/50
f 37/98/51 36/109/51 45/112/51 46/99/51
f 34/83/52 79/96/52 43/101/52
f 41/104/53 40/114/53 49/115/53 50/105/53
f 43/101/54 79/96/54 52/116/54
f 50/105/55 49/115/55 58/117/55 59/118/55
f 47/100/56 46/99/56 55/119/56 56/120/56
f 44/102/57 43/101/57 52/116/57 53/121/57
f 51/106/58 50/105/58 59/118/58 60/122/58
f 48/108/59 47/100/59 56/120/59 57/123/59
f 45/112/60 44/111/60 53/124/60 54/125/60
f 98/93/61 51/113/61 60/126/61
f 49/115/62 48/108/62 57/123/62 58/117/62
f 46/99/63 45/112/63 54/125/63 55/119/63
f 58/117/64 57/123/64 66/127/64 67/128/64
f 55/119/65 54/125/65 63/129/65 64/130/65
f 52/116/66 79/96/66 61/131/66
f 59/118/67 58/117/67 67/128/67 68/132/67
f 56/120/68 55/119/68 64/130/68 65/133/68
f 53/121/69 52/116/69 61/131/69 62/134/69
f 60/126/70 59/135/70 68/136/70 69/137/70
f 57/123/71 56/120/71 65/133/71 66/127/71
f 54/138/72 53/139/72 62/140/72 63/141/72
f 98/93/73 60/126/73 69/137/73
f 63/142/74 62/134/74 71/143/74 72/144/74
f 98/93/75 69/137/75 78/145/75
f 67/146/76 66/147/76 75/148/76 76/149/76
f 64/150/77 63/151/77 72/152/77 73/153/77
f 61/131/78 79/96/78 70/154/78
f 68/155/79 67/146/79 76/149/79 77/156/79
f 65/157/80 64/150/80 73/153/80 74/158/80
f 62/134/81 61/131/81 70/154/81 71/143/81
f 69/137/82 68/136/82 77/159/82 78/145/82
f 66/147/83 65/157/83 74/158/83 75/148/83
f 75/148/84 74/158/84 84/160/84 85/161/84
f 72/144/85 71/143/85 81/162/85 82/163/85
f 98/93/86 78/145/86 88/164/86
f 76/149/87 75/148/87 85/161/87 86/165/87
f 73/153/88 72/152/88 82/166/88 83/167/88
f 70/154/89 79/96/89 80/168/89
f 77/159/90 76/169/90 86/170/90 87/171/90
f 74/158/91 73/153/91 83/167/91 84/160/91
f 71/143/92 70/154/92 80/168/92 81/162/92
f 78/145/93 77/159/93 87/171/93 88/164/93
f 81/162/94 80/168/94 89/172/94 90/173/94
f 88/164/95 87/171/95 96/174/95 97/175/95
f 85/161/96 84/160/96 93/176/96 94/176/96
f 82/163/97 81/162/97 90/173/97 91/177/97
f 98/93/98 88/164/98 97/175/98
f 86/170/99 85/178/99 94/179/99 95/180/99
f 83/181/100 82/163/100 91/177/100 92/182/100
f 80/168/101 79/96/101 89/172/101
f 87/171/102 86/170/102 95/180/102 96/174/102
f 84/160/103 83/167/103 92/183/103 93/176/103
f 96/174/104 95/180/104 105/184/104 106/185/104
f 93/186/105 92/187/105 102/188/105 103/189/105
f 90/173/106 89/172/106 99/190/106 100/191/106
f 97/175/107 96/174/107 106/185/107 107/192/107
f 94/193/108 93/193/108 103/193/108 104/193/108
f 91/177/109 90/173/109 100/191/109 101/194/109
f 98/93/110 97/175/110 107/192/110
f 95/180/111 94/179/111 104/195/111 105/184/111
f 92/182/112 91/177/112 101/194/112 102/196/112
f 89/172/113 79/96/113 99/190/113
f 102/188/114 101/197/114 110/198/114 111/199/114
f 99/190/115 79/96/115 108/200/115
f 106/185/116 105/184/116 114/201/116 115/202/116
f 103/189/117 102/188/117 111/199/117 112/203/117
f 100/191/118 99/190/118 108/200/118 109/204/118
f 107/192/119 106/185/119 115/202/119 116/205/119
f 104/189/120 103/189/120 112/203/120 113/206/120
f 101/194/121 100/191/121 109/204/121 110/207/121
f 98/93/122 107/192/122 116/205/122
f 105/208/123 104/189/123 113/206/123 114/209/123
f 114/209/124 113/206/124 122/87/124 123/94/124
f 111/199/125 110/198/125 119/89/125 120/78/125
f 108/200/126 79/96/126 117/82/126
f 115/202/127 114/201/127 123/74/127 124/73/127
f 112/203/128 111/199/128 120/78/128 121/77/128
f 109/204/129 108/200/129 117/82/129 118/81/129
f 116/205/130 115/202/130 124/73/130 125/85/130
f 113/206/131 112/203/131 121/77/131 122/87/131
f 110/198/132 109/210/132 118/90/132 119/89/132
f 98/93/133 116/205/133 125/85/133
o Cube
v -0.365375 0.086434 -0.000105
v -0.204899 0.021697 -0.000105
v -0.204899 0.021697 0.000105
v -0.365375 0.086434 0.000105
v -0.365373 -0.086434 -0.000105
v -0.204899 -0.021698 -0.000105
v -0.204899 -0.021698 0.000105
v -0.365373 -0.086434 0.000105
v -0.484385 -0.001738 0.000105
v -0.484385 -0.001723 -0.000105
v -0.429722 -0.086434 -0.000105
v -0.429733 -0.086434 0.000105
v -0.484385 0.001721 0.000105
v -0.484385 0.001735 -0.000105
v -0.429741 0.086434 -0.000105
v -0.429732 0.086434 0.000105
vn -1.0000 -0.0000 -0.0000
vn -0.0000 -0.0000 -1.0000
vn 1.0000 -0.0000 -0.0000
vn -0.0000 -0.0000 1.0000
vn -0.0000 -1.0000 -0.0000
vn -0.0000 1.0000 -0.0000
vn 0.3741 0.9274 -0.0000
vn 0.3741 -0.9274 -0.0000
vn -0.8396 -0.5418 -0.0406
vn -0.8397 0.5418 0.0371
vt 0.747679 0.277984
vt 0.747701 0.517417
vt 0.742910 0.517417
vt 0.742890 0.277984
vt 0.164240 0.633489
vt 0.194364 0.587302
vt 0.344570 0.521133
vt 0.394913 0.553968
vt 0.394913 0.718101
vt 0.364798 0.764275
vt 0.240940 0.739402
vt 0.236928 0.736786
vt 0.120210 0.527481
vt 0.060105 0.527481
vt 0.060105 0.288048
vt 0.120210 0.288048
vt 0.548884 0.302864
vt 0.552897 0.305482
vt 0.625578 0.408783
vt 0.595457 0.454965
vt 0.445253 0.521133
vt 0.394909 0.488298
vt 0.394909 0.324164
vt 0.425028 0.277984
vt 0.894103 1.000000
vt 0.894103 0.760567
vt 0.949239 0.760567
vt 0.949230 1.000000
vt 0.803453 0.521133
vt 0.858588 0.521133
vt 0.858588 0.760566
vt 0.803445 0.760566
vt 0.996066 0.521133
vt 0.996066 0.760566
vt 0.756625 1.000000
vt 0.756625 0.760567
vt 0.865011 0.277984
vt 0.865011 0.517417
vt 0.625577 0.517417
vt 0.625577 0.277984
s 0
usemtl Material
f 135/211/134 134/212/134 138/213/134 139/214/134
f 140/215/135 126/216/135 127/217/135 131/218/135 130/219/135 136/220/135 135/221/135 139/222/135
f 131/223/136 127/224/136 128/225/136 132/226/136
f 138/227/137 134/228/137 137/229/137 133/230/137 132/231/137 128/232/137 129/233/137 141/234/137
f 130/235/138 133/236/138 137/237/138 136/238/138
f 141/239/139 129/240/139 126/241/139 140/242/139
f 128/243/140 127/244/140 126/241/140 129/240/140
f 131/245/141 132/246/141 133/236/141 130/235/141
f 134/212/142 135/211/142 136/247/142 137/248/142
f 139/214/143 138/213/143 141/249/143 140/250/143
o Cube.001
v -0.365375 0.000105 0.086434
v -0.204899 0.000105 0.021697
v -0.204899 -0.000105 0.021697
v -0.365375 -0.000105 0.086434
v -0.365373 0.000105 -0.086434
v -0.204899 0.000105 -0.021698
v -0.204899 -0.000105 -0.021698
v -0.365373 -0.000105 -0.086434
v -0.484385 -0.000105 -0.001738
v -0.484385 0.000105 -0.001723
v -0.429722 0.000105 -0.086434
v -0.429733 -0.000105 -0.086434
v -0.484385 -0.000105 0.001721
v -0.484385 0.000105 0.001735
v -0.429741 0.000105 0.086434
v -0.429732 -0.000105 0.086434
vn -1.0000 -0.0000 -0.0000
vn -0.0000 1.0000 -0.0000
vn 1.0000 -0.0000 -0.0000
vn -0.0000 -1.0000 -0.0000
vn -0.0000 -0.0000 -1.0000
vn -0.0000 -0.0000 1.0000
vn 0.3741 -0.0000 0.9274
vn 0.3741 -0.0000 -0.9274
vn -0.8396 0.0406 -0.5418
vn -0.8397 -0.0371 0.5418
vt 0.686114 0.521133
vt 0.686135 0.760567
vt 0.681344 0.760567
vt 0.681324 0.521133
vt 0.494443 0.112356
vt 0.524566 0.066169
vt 0.674772 -0.000000
vt 0.725116 0.032835
vt 0.725116 0.196968
vt 0.695000 0.243142
vt 0.571142 0.218270
vt 0.567131 0.215653
vt 0.060105 0.527481
vt 0.000000 0.527481
vt -0.000000 0.288048
vt 0.060105 0.288048
vt 0.318215 0.302864
vt 0.322228 0.305482
vt 0.394909 0.408783
vt 0.364789 0.454965
vt 0.214584 0.521133
vt 0.164240 0.488298
vt 0.164240 0.324164
vt 0.194360 0.277984
vt 0.701489 1.000000
vt 0.701489 0.760567
vt 0.756625 0.760567
vt 0.756617 1.000000
vt 0.725124 0.000000
vt 0.780258 0.000000
vt 0.780258 0.239434
vt 0.725116 0.239434
vt 0.917736 0.000000
vt 0.917736 0.239434
vt 0.564012 1.000000
vt 0.564012 0.760567
vt 0.803445 0.521133
vt 0.803445 0.760566
vt 0.564012 0.760566
vt 0.564012 0.521133
s 0
f 151/251/144 150/252/144 154/253/144 155/254/144
f 156/255/145 142/256/145 143/257/145 147/258/145 146/259/145 152/260/145 151/261/145 155/262/145
f 147/263/146 143/264/146 144/265/146 148/266/146
f 154/267/147 150/268/147 153/269/147 149/270/147 148/271/147 144/272/147 145/273/147 157/274/147
f 146/275/148 149/276/148 153/277/148 152/278/148
f 157/279/149 145/280/149 142/281/149 156/282/149
f 144/283/150 143/284/150 142/281/150 145/280/150
f 147/285/151 148/286/151 149/276/151 146/275/151
f 150/252/152 151/251/152 152/287/152 153/288/152
f 155/254/153 154/253/153 157/289/153 156/290/153
