# Blender v2.93.4 OBJ File: 'butcher.blend'
# www.blender.org
mtllib butcher.mtl
o Cube
v 16.008204 17.943064 -20.000000
v 16.008204 17.943064 20.000000
v 16.008204 0.943064 20.000000
v -17.402288 17.943064 -20.000000
v -17.402288 17.943064 20.000000
v -17.402288 0.943064 20.000000
v -0.634868 28.943062 -19.999998
v -0.634868 28.943062 19.000000
v 16.008204 17.943064 19.000000
v -17.402288 17.943064 19.000000
v 16.008204 29.943064 20.000000
v 16.008204 29.943064 19.000000
v -17.402288 29.943064 20.000000
v -17.402288 29.943064 19.000000
v 16.008204 15.937738 28.940655
v -17.402288 15.943064 28.939056
v 15.409860 15.939337 28.939930
v 16.008204 16.048805 28.434677
v 15.416059 16.051521 28.434818
v 16.017565 0.939177 29.025620
v 15.419220 0.939177 29.025620
v 16.017565 0.940733 28.460295
v 15.425419 0.938826 28.464163
v -17.402288 0.943064 29.029398
v -17.402288 16.047325 28.435934
v -16.778692 15.940401 28.939344
v -16.783340 16.051519 28.434134
v -16.780190 0.935775 28.989403
v -17.400124 0.945483 28.445087
v -16.783815 0.932959 28.448019
v 0.161631 0.943064 29.029398
v -0.332632 0.943064 29.029398
v 0.149168 0.945045 28.451136
v -0.345095 0.945045 28.451136
v -0.332632 15.941694 28.939129
v 0.161631 15.941755 28.938341
v -0.345095 16.051519 28.438433
v 0.149168 16.048304 28.438433
v -17.402288 -0.003429 -20.000000
v -17.402288 -0.003429 20.000000
v 16.008204 -0.003429 -20.000000
v 16.008204 -0.003429 20.000000
v 16.008204 -0.003429 29.029398
v -17.402288 -0.003429 29.029398
v 16.008245 18.589573 20.008743
v -17.402246 18.589573 20.008743
v -17.402246 16.589573 28.702198
v 16.008245 16.584248 28.703794
v 9.566030 25.982738 -20.000000
v 9.566030 25.982738 19.000000
v -10.288416 25.982738 -20.000000
v -10.288416 25.982738 19.000000
v -11.717316 29.943064 19.000000
v -11.717316 29.943064 20.000000
v 10.444933 29.943064 20.000000
v 10.444933 29.943064 19.000000
v -0.406569 36.324093 19.000000
v -0.406569 36.324093 20.000000
v 5.128567 0.943064 20.000000
v 10.929593 0.943064 20.000000
v 5.196610 10.928312 20.000002
v 10.997635 10.928312 20.000002
v 5.128567 0.943064 20.221138
v 10.929593 0.943064 20.221138
v 5.196610 10.928312 20.221140
v 10.997635 10.928312 20.221140
v -6.419359 6.244099 19.999998
v -6.419359 6.244099 20.216188
v -11.523935 6.244099 19.999998
v -11.523935 6.244099 20.216188
v -6.419359 12.545238 19.999998
v -6.419359 12.545238 20.216188
v -11.523935 12.545238 19.999998
v -11.523935 12.545238 20.216188
v 3.831158 35.436142 20.000000
v 3.831158 35.436142 19.000000
v -4.849423 35.289169 19.000000
v -4.849423 35.289169 20.000000
v -7.854701 33.865376 19.000000
v -7.854701 33.865376 20.000000
v 6.758368 33.816387 19.000000
v 6.758368 33.816387 20.000000
vt 0.562446 0.000000
vt 0.650494 0.077909
vt 0.682915 0.183632
vt 0.650494 0.295349
vt 0.562446 0.365901
vt 0.365902 0.000000
vt 0.365901 0.186148
vt 0.000000 0.186158
vt 0.000001 0.000010
vt 0.246751 0.000003
vt 0.310282 0.000002
vt 0.633735 0.562446
vt 0.633735 0.365902
vt 0.852769 0.365902
vt 0.852769 0.376267
vt 0.852769 0.562446
vt 0.847293 0.562446
vt 0.049424 0.397874
vt 0.049442 0.387508
vt 0.268471 0.387891
vt 0.268129 0.584435
vt 0.054577 0.584062
vt 0.049101 0.584053
vt 0.054349 0.715482
vt 0.048873 0.715473
vt 0.847167 0.693866
vt 0.848333 0.805639
vt 0.634915 0.805639
vt 0.633749 0.693866
vt 0.847153 0.911306
vt 0.633735 0.911306
vt 0.852769 0.693866
vt 0.847293 0.693866
vt 0.136830 0.776409
vt 0.131358 0.776410
vt 0.131358 0.715482
vt 0.136830 0.715482
vt 0.848643 0.695098
vt 0.851408 0.693866
vt 0.851408 0.859376
vt 0.848333 0.859375
vt 0.155272 0.722035
vt 0.152206 0.721967
vt 0.152183 0.715482
vt 0.155272 0.715482
vt 0.002952 0.563227
vt 0.000183 0.562005
vt 0.000002 0.397745
vt 0.003098 0.397768
vt 0.362944 0.552932
vt 0.356459 0.552898
vt 0.356459 0.387439
vt 0.362944 0.387422
vt 0.349906 0.387444
vt 0.356459 0.387422
vt 0.356459 0.551680
vt 0.349906 0.551685
vt 0.854373 0.859440
vt 0.851606 0.858222
vt 0.851408 0.693896
vt 0.854373 0.693866
vt 0.149228 0.722295
vt 0.148989 0.715482
vt 0.152183 0.715494
vt 0.152183 0.722244
vt 0.362316 0.554075
vt 0.365071 0.552932
vt 0.365071 0.718323
vt 0.361872 0.718350
vt 0.349906 0.551726
vt 0.343076 0.551754
vt 0.343092 0.387497
vt 0.349906 0.387422
vt 0.336298 0.387468
vt 0.343076 0.387422
vt 0.343076 0.552996
vt 0.336327 0.552859
vt 1.000000 0.365936
vt 1.000000 0.731837
vt 0.951634 0.731802
vt 0.951623 0.365901
vt 0.339465 0.552996
vt 0.342632 0.553019
vt 0.342632 0.718425
vt 0.339894 0.717257
vt 0.350002 0.714646
vt 0.356451 0.711724
vt 0.356451 0.764156
vt 0.350565 0.768300
vt 0.343076 0.551754
vt 0.348489 0.551754
vt 0.348489 0.717196
vt 0.343076 0.717161
vt 0.356459 0.552932
vt 0.361872 0.552932
vt 0.361872 0.717174
vt 0.356459 0.717174
vt 0.339465 0.718437
vt 0.336298 0.718460
vt 0.336723 0.554200
vt 0.339465 0.552996
vt 0.633735 0.731847
vt 0.365902 0.731802
vt 0.365902 0.365901
vt 0.365902 0.000000
vt 0.365902 0.365901
vt 0.902212 0.376267
vt 0.902212 0.365901
vt 0.951623 0.731902
vt 0.902212 0.731905
vt 0.902212 0.544964
vt 0.902212 0.539551
vt 0.902231 0.365901
vt 0.951623 0.366001
vt 0.951623 0.421620
vt 0.951623 0.485151
vt 0.000000 0.387422
vt 0.329195 0.387422
vt 0.329195 0.753323
vt 0.318873 0.753426
vt 0.318831 0.387422
vt 0.365902 0.193226
vt 0.000001 0.193236
vt 0.119995 0.715482
vt 0.125885 0.719620
vt 0.125885 0.772021
vt 0.119433 0.769105
vt 0.329195 0.387423
vt 0.336298 0.387422
vt 0.336298 0.753323
vt 0.329195 0.753324
vt 0.268471 0.672392
vt 0.054918 0.672019
vt 0.847456 0.650548
vt 0.633898 0.650548
vt 0.131358 0.777742
vt 0.125885 0.777742
vt 0.125885 0.715482
vt 0.131358 0.715482
vt 0.365901 0.317546
vt 0.304974 0.317548
vt 0.264600 0.359961
vt 0.232542 0.377698
vt 0.186131 0.387422
vt 0.137475 0.376091
vt 0.104562 0.360502
vt 0.062260 0.317554
vt 0.000000 0.317556
vt 0.803383 0.183632
vt 0.770963 0.077909
vt 0.682915 0.000000
vt 0.814335 0.000000
vt 0.814335 0.062260
vt 0.857291 0.104562
vt 0.872884 0.137475
vt 0.884218 0.186132
vt 0.874494 0.232542
vt 0.856754 0.264600
vt 0.814335 0.304974
vt 0.814335 0.365901
vt 0.682915 0.365901
vt 0.770963 0.295349
vt 0.350418 0.584571
vt 0.355890 0.584571
vt 0.355474 0.633208
vt 0.350002 0.633208
vt 0.350348 0.679635
vt 0.355820 0.679635
vt 0.268471 0.753368
vt 0.268483 0.387467
vt 0.318831 0.387422
vt 0.318831 0.753322
vt 0.364155 0.387422
vt 0.364155 0.496778
vt 0.362944 0.496778
vt 0.362944 0.387422
vt 0.000000 0.715482
vt 0.063529 0.715913
vt 0.063529 0.825253
vt 0.000000 0.824822
vt 0.349699 0.689771
vt 0.349699 0.753302
vt 0.348489 0.753302
vt 0.348489 0.689771
vt 0.365902 0.387422
vt 0.365902 0.496778
vt 0.364691 0.496778
vt 0.364691 0.387422
vt 0.148989 0.715482
vt 0.148989 0.779013
vt 0.147781 0.779013
vt 0.147781 0.715482
vt 0.365872 0.552682
vt 0.364691 0.552682
vt 0.364691 0.496778
vt 0.365872 0.496779
vt 0.348489 0.551754
vt 0.349673 0.551754
vt 0.349673 0.620763
vt 0.348489 0.620763
vt 0.364155 0.552682
vt 0.362972 0.552682
vt 0.362972 0.496778
vt 0.364155 0.496778
vt 0.349673 0.689771
vt 0.348489 0.689771
vt 0.348489 0.620762
vt 0.349673 0.620762
vt 0.119433 0.715482
vt 0.119433 0.784479
vt 0.063529 0.784480
vt 0.063529 0.715484
vt 0.350986 0.711723
vt 0.356459 0.711724
vt 0.350986 0.551685
vt 0.356459 0.551685
vt 0.136830 0.715482
vt 0.142306 0.715493
vt 0.142306 0.758479
vt 0.136830 0.758467
vt 0.147781 0.715519
vt 0.147781 0.757887
vt 0.142306 0.757850
vt 0.142306 0.715482
vn 0.0000 0.0000 -1.0000
vn 0.0000 0.0000 1.0000
vn -1.0000 -0.0000 0.0000
vn 1.0000 -0.0000 0.0000
vn 0.2787 0.9604 0.0000
vn -0.2932 0.9561 0.0000
vn 0.0000 1.0000 0.0000
vn -0.9999 -0.0007 -0.0117
vn 0.0016 -1.0000 -0.0011
vn 1.0000 0.0006 0.0001
vn -0.0034 -0.0018 -1.0000
vn -0.0006 0.0057 1.0000
vn 1.0000 -0.0001 -0.0079
vn -0.0160 -0.9999 0.0004
vn -1.0000 -0.0001 -0.0020
vn 0.0319 0.0047 0.9995
vn 0.0009 -0.0008 -1.0000
vn 0.0001 0.9745 0.2245
vn 0.9997 -0.0001 -0.0231
vn 1.0000 -0.0001 -0.0000
vn -0.0000 -0.0008 -1.0000
vn 0.0008 0.0060 1.0000
vn -0.9997 0.0001 0.0231
vn 0.0000 -1.0000 0.0000
vn 0.0001 1.0000 0.0001
vn 1.0000 -0.0053 -0.0005
vn 0.0001 0.0020 1.0000
vn 0.0000 -0.0135 0.9999
vn -1.0000 0.0001 0.0000
vn 0.0000 0.3440 0.9390
vn 0.7804 0.6253 0.0000
vn -0.7489 0.6627 0.0000
vn 0.0000 0.0006 1.0000
vn -0.2269 0.9739 0.0000
vn 0.2051 0.9787 0.0000
vn -0.0001 -0.9758 -0.2186
vn -1.0000 0.0068 0.0000
vn 1.0000 -0.0068 0.0000
vn 0.4842 0.8750 0.0000
vn -0.4281 0.9037 0.0000
vn -0.7125 0.7017 0.0000
vn 0.7244 0.6894 0.0000
usemtl Material
s off
f 4/1/1 51/2/1 7/3/1 49/4/1 1/5/1
f 3/6/2 2/7/2 5/8/2 6/9/2 59/10/2 60/11/2
f 4/12/3 39/13/3 40/14/3 6/15/3 5/16/3 10/17/3
f 3/18/4 42/19/4 41/20/4 1/21/4 9/22/4 2/23/4
f 2/23/4 9/22/4 12/24/4 11/25/4
f 49/26/5 7/27/5 8/28/5 50/29/5
f 51/30/6 52/31/6 8/28/6 7/27/6
f 10/17/3 5/16/3 13/32/3 14/33/3
f 56/34/7 55/35/7 11/36/7 12/37/7
f 17/38/8 19/39/8 23/40/8 21/41/8
f 21/42/9 23/43/9 22/44/9 20/45/9
f 18/46/10 15/47/10 20/48/10 22/49/10
f 19/50/11 18/51/11 22/52/11 23/53/11
f 15/54/12 17/55/12 21/56/12 20/57/12
f 27/58/13 26/59/13 28/60/13 30/61/13
f 28/62/14 24/63/14 29/64/14 30/65/14
f 16/66/15 25/67/15 29/68/15 24/69/15
f 26/70/16 16/71/16 24/72/16 28/73/16
f 25/74/17 27/75/17 30/76/17 29/77/17
f 45/78/18 46/79/18 47/80/18 48/81/18
f 31/82/19 33/83/19 38/84/19 36/85/19
f 2/86/20 45/87/20 48/88/20 15/89/20
f 33/90/21 34/91/21 37/92/21 38/93/21
f 32/94/22 31/95/22 36/96/22 35/97/22
f 34/98/23 32/99/23 35/100/23 37/101/23
f 39/13/24 41/102/24 43/103/24 44/104/24
f 39/105/1 4/1/1 1/5/1 41/106/1
f 24/107/3 6/15/3 40/14/3 44/108/3
f 6/109/25 24/110/25 32/111/25 31/112/25 20/113/25 3/114/25 60/115/25 59/116/25
f 20/48/26 43/117/26 42/19/26 3/18/26 22/49/26
f 44/118/27 43/119/27 20/120/27 24/121/27
f 5/8/28 2/7/28 45/122/28 46/123/28
f 16/124/29 47/125/29 46/126/29 5/127/29
f 15/128/30 48/129/30 47/130/30 16/131/30
f 1/21/31 49/132/31 50/133/31 9/22/31
f 4/12/32 10/17/32 52/134/32 51/135/32
f 14/136/7 13/137/7 54/138/7 53/139/7
f 46/123/33 45/122/33 11/140/33 55/141/33 82/142/33 75/143/33 58/144/33 78/145/33 80/146/33 54/147/33 13/148/33
f 8/149/1 52/150/1 10/151/1 14/152/1 53/153/1 79/154/1 77/155/1 57/156/1 76/157/1 81/158/1 56/159/1 12/160/1 9/161/1 50/162/1
f 77/163/34 78/164/34 58/165/34 57/166/34
f 76/167/35 57/166/35 58/165/35 75/168/35
f 15/169/36 16/170/36 5/171/36 2/172/36
f 61/173/37 59/174/37 63/175/37 65/176/37
f 63/177/2 64/178/2 66/179/2 65/180/2
f 62/181/7 61/182/7 65/183/7 66/184/7
f 60/185/38 62/186/38 66/187/38 64/188/38
f 59/189/24 60/190/24 64/191/24 63/192/24
f 67/193/24 68/194/24 70/195/24 69/196/24
f 69/197/3 70/198/3 74/199/3 73/200/3
f 73/201/7 74/202/7 72/203/7 71/204/7
f 71/205/4 72/206/4 68/207/4 67/208/4
f 74/209/2 70/210/2 68/211/2 72/212/2
f 81/213/39 76/167/39 75/168/39 82/214/39
f 79/215/40 80/216/40 78/164/40 77/163/40
f 53/217/41 54/218/41 80/219/41 79/220/41
f 56/221/42 81/222/42 82/223/42 55/224/42
